<mxfile host="app.diagrams.net" agent="Mozilla/5.0 (Windows NT 10.0; Win64; x64) AppleWebKit/537.36 (KHTML, like Gecko) Chrome/137.0.0.0 Safari/537.36" version="27.1.6" pages="4">
  <diagram name="Diseño de datos" id="2FeGWj5i59a17AdY776t">
    <mxGraphModel grid="1" page="1" gridSize="10" guides="1" tooltips="1" connect="1" arrows="1" fold="1" pageScale="1" pageWidth="827" pageHeight="1169" math="0" shadow="0">
      <root>
        <mxCell id="0" />
        <mxCell id="1" parent="0" />
        <mxCell id="eBWcmWFCnsHd4cp2Ri9W-1" value="" style="swimlane;startSize=0;" vertex="1" parent="1">
          <mxGeometry x="210" y="120" width="420" height="480" as="geometry">
            <mxRectangle x="310" y="290" width="50" height="40" as="alternateBounds" />
          </mxGeometry>
        </mxCell>
        <mxCell id="eBWcmWFCnsHd4cp2Ri9W-6" value="Seleccion de productos" style="ellipse;whiteSpace=wrap;html=1;" vertex="1" parent="eBWcmWFCnsHd4cp2Ri9W-1">
          <mxGeometry x="43" y="40" width="340" height="80" as="geometry" />
        </mxCell>
        <mxCell id="eBWcmWFCnsHd4cp2Ri9W-7" value="Gestion del Carrito" style="ellipse;whiteSpace=wrap;html=1;" vertex="1" parent="eBWcmWFCnsHd4cp2Ri9W-1">
          <mxGeometry x="43" y="140" width="340" height="80" as="geometry" />
        </mxCell>
        <mxCell id="eBWcmWFCnsHd4cp2Ri9W-8" value="Ingreso De Información del cliente" style="ellipse;whiteSpace=wrap;html=1;" vertex="1" parent="eBWcmWFCnsHd4cp2Ri9W-1">
          <mxGeometry x="37" y="250" width="340" height="80" as="geometry" />
        </mxCell>
        <mxCell id="eBWcmWFCnsHd4cp2Ri9W-13" value="Gestión del pago y emision de factura" style="ellipse;whiteSpace=wrap;html=1;" vertex="1" parent="eBWcmWFCnsHd4cp2Ri9W-1">
          <mxGeometry x="37" y="350" width="340" height="80" as="geometry" />
        </mxCell>
        <mxCell id="eBWcmWFCnsHd4cp2Ri9W-2" value="Sistema de distribuidora de bebidas" style="text;html=1;align=center;verticalAlign=middle;resizable=0;points=[];autosize=1;strokeColor=none;fillColor=none;" vertex="1" parent="1">
          <mxGeometry x="305" y="88" width="210" height="30" as="geometry" />
        </mxCell>
        <mxCell id="eBWcmWFCnsHd4cp2Ri9W-15" style="edgeStyle=orthogonalEdgeStyle;rounded=0;orthogonalLoop=1;jettySize=auto;html=1;exitX=0.75;exitY=0.1;exitDx=0;exitDy=0;exitPerimeter=0;entryX=0;entryY=0.5;entryDx=0;entryDy=0;endArrow=none;startFill=0;" edge="1" parent="1" source="eBWcmWFCnsHd4cp2Ri9W-3" target="eBWcmWFCnsHd4cp2Ri9W-6">
          <mxGeometry relative="1" as="geometry" />
        </mxCell>
        <mxCell id="wAAs1Y0Rfib1INU5uQ2i-2" style="edgeStyle=orthogonalEdgeStyle;rounded=0;orthogonalLoop=1;jettySize=auto;html=1;exitX=0.5;exitY=0;exitDx=0;exitDy=0;exitPerimeter=0;entryX=0;entryY=0.5;entryDx=0;entryDy=0;endArrow=none;startFill=0;" edge="1" parent="1" source="eBWcmWFCnsHd4cp2Ri9W-3" target="eBWcmWFCnsHd4cp2Ri9W-7">
          <mxGeometry relative="1" as="geometry">
            <Array as="points">
              <mxPoint x="75" y="270" />
              <mxPoint x="240" y="270" />
              <mxPoint x="240" y="300" />
            </Array>
          </mxGeometry>
        </mxCell>
        <mxCell id="wAAs1Y0Rfib1INU5uQ2i-5" style="edgeStyle=orthogonalEdgeStyle;rounded=0;orthogonalLoop=1;jettySize=auto;html=1;exitX=0.5;exitY=0.5;exitDx=0;exitDy=0;exitPerimeter=0;entryX=0;entryY=0.5;entryDx=0;entryDy=0;endArrow=none;startFill=0;" edge="1" parent="1" source="eBWcmWFCnsHd4cp2Ri9W-3" target="eBWcmWFCnsHd4cp2Ri9W-8">
          <mxGeometry relative="1" as="geometry" />
        </mxCell>
        <mxCell id="eBWcmWFCnsHd4cp2Ri9W-3" value="Cliente&lt;div&gt;&lt;br&gt;&lt;/div&gt;" style="shape=umlActor;verticalLabelPosition=bottom;verticalAlign=top;html=1;outlineConnect=0;" vertex="1" parent="1">
          <mxGeometry x="60" y="340" width="30" height="60" as="geometry" />
        </mxCell>
        <mxCell id="wAAs1Y0Rfib1INU5uQ2i-1" style="edgeStyle=orthogonalEdgeStyle;rounded=0;orthogonalLoop=1;jettySize=auto;html=1;exitX=0.25;exitY=0.1;exitDx=0;exitDy=0;exitPerimeter=0;entryX=1;entryY=0.5;entryDx=0;entryDy=0;endArrow=none;startFill=0;" edge="1" parent="1" source="eBWcmWFCnsHd4cp2Ri9W-4" target="eBWcmWFCnsHd4cp2Ri9W-6">
          <mxGeometry relative="1" as="geometry" />
        </mxCell>
        <mxCell id="wAAs1Y0Rfib1INU5uQ2i-6" style="edgeStyle=orthogonalEdgeStyle;rounded=0;orthogonalLoop=1;jettySize=auto;html=1;exitX=0.5;exitY=0.5;exitDx=0;exitDy=0;exitPerimeter=0;entryX=1;entryY=0.5;entryDx=0;entryDy=0;endArrow=none;startFill=0;" edge="1" parent="1" source="eBWcmWFCnsHd4cp2Ri9W-4" target="eBWcmWFCnsHd4cp2Ri9W-8">
          <mxGeometry relative="1" as="geometry" />
        </mxCell>
        <mxCell id="eBWcmWFCnsHd4cp2Ri9W-4" value="Base_De_Datos" style="shape=umlActor;verticalLabelPosition=bottom;verticalAlign=top;html=1;outlineConnect=0;" vertex="1" parent="1">
          <mxGeometry x="760" y="250" width="30" height="60" as="geometry" />
        </mxCell>
        <mxCell id="wAAs1Y0Rfib1INU5uQ2i-8" style="edgeStyle=orthogonalEdgeStyle;rounded=0;orthogonalLoop=1;jettySize=auto;html=1;exitX=0.5;exitY=0.5;exitDx=0;exitDy=0;exitPerimeter=0;entryX=1;entryY=0.5;entryDx=0;entryDy=0;endArrow=none;startFill=0;" edge="1" parent="1" source="wAAs1Y0Rfib1INU5uQ2i-3" target="eBWcmWFCnsHd4cp2Ri9W-13">
          <mxGeometry relative="1" as="geometry" />
        </mxCell>
        <mxCell id="wAAs1Y0Rfib1INU5uQ2i-3" value="M&lt;span style=&quot;background-color: transparent; color: light-dark(rgb(0, 0, 0), rgb(255, 255, 255));&quot;&gt;ercado_pago&lt;/span&gt;" style="shape=umlActor;verticalLabelPosition=bottom;verticalAlign=top;html=1;outlineConnect=0;" vertex="1" parent="1">
          <mxGeometry x="750" y="480" width="30" height="60" as="geometry" />
        </mxCell>
        <mxCell id="wAAs1Y0Rfib1INU5uQ2i-7" style="edgeStyle=orthogonalEdgeStyle;rounded=0;orthogonalLoop=1;jettySize=auto;html=1;exitX=0.5;exitY=0.5;exitDx=0;exitDy=0;exitPerimeter=0;entryX=0;entryY=0.5;entryDx=0;entryDy=0;endArrow=none;startFill=0;" edge="1" parent="1" source="wAAs1Y0Rfib1INU5uQ2i-4" target="eBWcmWFCnsHd4cp2Ri9W-13">
          <mxGeometry relative="1" as="geometry" />
        </mxCell>
        <mxCell id="wAAs1Y0Rfib1INU5uQ2i-4" value="&lt;span style=&quot;background-color: transparent; color: light-dark(rgb(0, 0, 0), rgb(255, 255, 255));&quot;&gt;Andreani&lt;/span&gt;" style="shape=umlActor;verticalLabelPosition=bottom;verticalAlign=top;html=1;outlineConnect=0;" vertex="1" parent="1">
          <mxGeometry x="60" y="480" width="30" height="60" as="geometry" />
        </mxCell>
      </root>
    </mxGraphModel>
  </diagram>
  <diagram name="Diseño procedimiental" id="c1ku7UBb0zL5GZpP6UQd">
    <mxGraphModel grid="1" page="1" gridSize="10" guides="1" tooltips="1" connect="1" arrows="1" fold="1" pageScale="1" pageWidth="827" pageHeight="1169" math="0" shadow="0">
      <root>
        <mxCell id="0" />
        <mxCell id="1" parent="0" />
        <mxCell id="YxvmecHKaxo6q0pPdfeQ-1" style="edgeStyle=orthogonalEdgeStyle;rounded=0;orthogonalLoop=1;jettySize=auto;html=1;" edge="1" parent="1" source="gaOHh2sVd_5oZwb0IphM-3" target="gaOHh2sVd_5oZwb0IphM-6">
          <mxGeometry relative="1" as="geometry" />
        </mxCell>
        <mxCell id="gaOHh2sVd_5oZwb0IphM-3" value="Inicio" style="strokeWidth=2;html=1;shape=mxgraph.flowchart.start_1;whiteSpace=wrap;" vertex="1" parent="1">
          <mxGeometry x="369" y="-210" width="116" height="50" as="geometry" />
        </mxCell>
        <mxCell id="YxvmecHKaxo6q0pPdfeQ-3" style="edgeStyle=orthogonalEdgeStyle;rounded=0;orthogonalLoop=1;jettySize=auto;html=1;entryX=0.5;entryY=0;entryDx=0;entryDy=0;entryPerimeter=0;" edge="1" parent="1" source="gaOHh2sVd_5oZwb0IphM-6" target="7hX-RCZ9HSbbYuxjsQCb-2">
          <mxGeometry relative="1" as="geometry" />
        </mxCell>
        <mxCell id="gaOHh2sVd_5oZwb0IphM-6" value="Cargar factura" style="shape=parallelogram;html=1;strokeWidth=2;perimeter=parallelogramPerimeter;whiteSpace=wrap;rounded=1;arcSize=12;size=0.23;" vertex="1" parent="1">
          <mxGeometry x="369.5" y="-110" width="113" height="40" as="geometry" />
        </mxCell>
        <mxCell id="YxvmecHKaxo6q0pPdfeQ-16" style="edgeStyle=orthogonalEdgeStyle;rounded=0;orthogonalLoop=1;jettySize=auto;html=1;" edge="1" parent="1" source="gaOHh2sVd_5oZwb0IphM-9" target="YxvmecHKaxo6q0pPdfeQ-13">
          <mxGeometry relative="1" as="geometry" />
        </mxCell>
        <mxCell id="gaOHh2sVd_5oZwb0IphM-9" value="Muestra información validada" style="strokeWidth=2;html=1;shape=mxgraph.flowchart.display;whiteSpace=wrap;" vertex="1" parent="1">
          <mxGeometry x="336" y="790" width="180" height="80" as="geometry" />
        </mxCell>
        <mxCell id="gaOHh2sVd_5oZwb0IphM-12" style="edgeStyle=orthogonalEdgeStyle;rounded=0;orthogonalLoop=1;jettySize=auto;html=1;endArrow=none;endFill=0;" edge="1" parent="1" source="gaOHh2sVd_5oZwb0IphM-10">
          <mxGeometry relative="1" as="geometry">
            <mxPoint x="810" y="-140" as="targetPoint" />
            <Array as="points">
              <mxPoint x="810" y="395" />
              <mxPoint x="810" y="140" />
            </Array>
          </mxGeometry>
        </mxCell>
        <mxCell id="QBFL5cBLOLrj4FWXCghx-17" style="edgeStyle=orthogonalEdgeStyle;rounded=0;orthogonalLoop=1;jettySize=auto;html=1;" edge="1" parent="1" source="gaOHh2sVd_5oZwb0IphM-10" target="QBFL5cBLOLrj4FWXCghx-16">
          <mxGeometry relative="1" as="geometry" />
        </mxCell>
        <mxCell id="gaOHh2sVd_5oZwb0IphM-10" value="Validación exitosa" style="strokeWidth=2;html=1;shape=mxgraph.flowchart.decision;whiteSpace=wrap;" vertex="1" parent="1">
          <mxGeometry x="364" y="340" width="124" height="110" as="geometry" />
        </mxCell>
        <mxCell id="gaOHh2sVd_5oZwb0IphM-13" value="" style="edgeStyle=none;orthogonalLoop=1;jettySize=auto;html=1;rounded=0;" edge="1" parent="1">
          <mxGeometry width="100" relative="1" as="geometry">
            <mxPoint x="810" y="-140" as="sourcePoint" />
            <mxPoint x="430" y="-140" as="targetPoint" />
            <Array as="points" />
          </mxGeometry>
        </mxCell>
        <mxCell id="gaOHh2sVd_5oZwb0IphM-14" value="F" style="text;html=1;align=center;verticalAlign=middle;resizable=0;points=[];autosize=1;strokeColor=none;fillColor=none;fontStyle=1" vertex="1" parent="1">
          <mxGeometry x="516" y="340" width="30" height="30" as="geometry" />
        </mxCell>
        <mxCell id="YxvmecHKaxo6q0pPdfeQ-15" style="edgeStyle=orthogonalEdgeStyle;rounded=0;orthogonalLoop=1;jettySize=auto;html=1;" edge="1" parent="1" source="gaOHh2sVd_5oZwb0IphM-17" target="gaOHh2sVd_5oZwb0IphM-9">
          <mxGeometry relative="1" as="geometry" />
        </mxCell>
        <mxCell id="gaOHh2sVd_5oZwb0IphM-17" value="Enviar mail al proveedor" style="rounded=1;whiteSpace=wrap;html=1;absoluteArcSize=1;arcSize=14;strokeWidth=2;" vertex="1" parent="1">
          <mxGeometry x="320.75" y="700" width="210.5" height="40" as="geometry" />
        </mxCell>
        <mxCell id="QBFL5cBLOLrj4FWXCghx-35" style="edgeStyle=orthogonalEdgeStyle;rounded=0;orthogonalLoop=1;jettySize=auto;html=1;" edge="1" parent="1" source="QBFL5cBLOLrj4FWXCghx-7" target="QBFL5cBLOLrj4FWXCghx-21">
          <mxGeometry relative="1" as="geometry">
            <Array as="points">
              <mxPoint x="238" y="1220" />
              <mxPoint x="426" y="1220" />
            </Array>
          </mxGeometry>
        </mxCell>
        <mxCell id="QBFL5cBLOLrj4FWXCghx-7" value="Almacenamiento orden de pago en bases de datos" style="rounded=1;whiteSpace=wrap;html=1;absoluteArcSize=1;arcSize=14;strokeWidth=2;" vertex="1" parent="1">
          <mxGeometry x="140" y="1079" width="196" height="90" as="geometry" />
        </mxCell>
        <mxCell id="QBFL5cBLOLrj4FWXCghx-20" style="edgeStyle=orthogonalEdgeStyle;rounded=0;orthogonalLoop=1;jettySize=auto;html=1;" edge="1" parent="1" source="QBFL5cBLOLrj4FWXCghx-16" target="QBFL5cBLOLrj4FWXCghx-26">
          <mxGeometry relative="1" as="geometry">
            <mxPoint x="700" y="620" as="targetPoint" />
          </mxGeometry>
        </mxCell>
        <mxCell id="QBFL5cBLOLrj4FWXCghx-34" style="edgeStyle=orthogonalEdgeStyle;rounded=0;orthogonalLoop=1;jettySize=auto;html=1;entryX=0.5;entryY=0;entryDx=0;entryDy=0;" edge="1" parent="1" source="QBFL5cBLOLrj4FWXCghx-16" target="gaOHh2sVd_5oZwb0IphM-17">
          <mxGeometry relative="1" as="geometry" />
        </mxCell>
        <mxCell id="QBFL5cBLOLrj4FWXCghx-16" value="Se paga monto total" style="strokeWidth=2;html=1;shape=mxgraph.flowchart.decision;whiteSpace=wrap;" vertex="1" parent="1">
          <mxGeometry x="352" y="490" width="148" height="110" as="geometry" />
        </mxCell>
        <mxCell id="QBFL5cBLOLrj4FWXCghx-21" value="Fin" style="strokeWidth=2;html=1;shape=mxgraph.flowchart.start_1;whiteSpace=wrap;" vertex="1" parent="1">
          <mxGeometry x="376" y="1320" width="100" height="60" as="geometry" />
        </mxCell>
        <mxCell id="QBFL5cBLOLrj4FWXCghx-22" value="F" style="text;html=1;align=center;verticalAlign=middle;resizable=0;points=[];autosize=1;strokeColor=none;fillColor=none;fontStyle=1" vertex="1" parent="1">
          <mxGeometry x="378.5" y="610" width="30" height="30" as="geometry" />
        </mxCell>
        <mxCell id="QBFL5cBLOLrj4FWXCghx-23" value="V" style="text;html=1;align=center;verticalAlign=middle;resizable=0;points=[];autosize=1;strokeColor=none;fillColor=none;fontStyle=1" vertex="1" parent="1">
          <mxGeometry x="516" y="500" width="30" height="30" as="geometry" />
        </mxCell>
        <mxCell id="QBFL5cBLOLrj4FWXCghx-33" style="edgeStyle=orthogonalEdgeStyle;rounded=0;orthogonalLoop=1;jettySize=auto;html=1;entryX=1;entryY=0.5;entryDx=0;entryDy=0;" edge="1" parent="1" source="QBFL5cBLOLrj4FWXCghx-26" target="gaOHh2sVd_5oZwb0IphM-17">
          <mxGeometry relative="1" as="geometry">
            <Array as="points">
              <mxPoint x="650" y="720" />
            </Array>
          </mxGeometry>
        </mxCell>
        <mxCell id="QBFL5cBLOLrj4FWXCghx-26" value="Marcar factura como pagada" style="rounded=1;whiteSpace=wrap;html=1;absoluteArcSize=1;arcSize=14;strokeWidth=2;" vertex="1" parent="1">
          <mxGeometry x="580" y="610" width="140" height="50" as="geometry" />
        </mxCell>
        <mxCell id="YxvmecHKaxo6q0pPdfeQ-5" style="edgeStyle=orthogonalEdgeStyle;rounded=0;orthogonalLoop=1;jettySize=auto;html=1;" edge="1" parent="1" source="7hX-RCZ9HSbbYuxjsQCb-2" target="YxvmecHKaxo6q0pPdfeQ-2">
          <mxGeometry relative="1" as="geometry" />
        </mxCell>
        <mxCell id="YxvmecHKaxo6q0pPdfeQ-7" style="edgeStyle=orthogonalEdgeStyle;rounded=0;orthogonalLoop=1;jettySize=auto;html=1;endArrow=none;endFill=0;" edge="1" parent="1" source="7hX-RCZ9HSbbYuxjsQCb-2">
          <mxGeometry relative="1" as="geometry">
            <mxPoint x="810" y="55" as="targetPoint" />
          </mxGeometry>
        </mxCell>
        <mxCell id="7hX-RCZ9HSbbYuxjsQCb-2" value="Existen productos" style="strokeWidth=2;html=1;shape=mxgraph.flowchart.decision;whiteSpace=wrap;" vertex="1" parent="1">
          <mxGeometry x="347" y="-10" width="160" height="130" as="geometry" />
        </mxCell>
        <mxCell id="YxvmecHKaxo6q0pPdfeQ-4" style="edgeStyle=orthogonalEdgeStyle;rounded=0;orthogonalLoop=1;jettySize=auto;html=1;" edge="1" parent="1" source="YxvmecHKaxo6q0pPdfeQ-2" target="gaOHh2sVd_5oZwb0IphM-10">
          <mxGeometry relative="1" as="geometry" />
        </mxCell>
        <mxCell id="YxvmecHKaxo6q0pPdfeQ-6" style="edgeStyle=orthogonalEdgeStyle;rounded=0;orthogonalLoop=1;jettySize=auto;html=1;endArrow=none;endFill=0;" edge="1" parent="1" source="YxvmecHKaxo6q0pPdfeQ-2">
          <mxGeometry relative="1" as="geometry">
            <mxPoint x="810" y="220" as="targetPoint" />
          </mxGeometry>
        </mxCell>
        <mxCell id="YxvmecHKaxo6q0pPdfeQ-2" value="Validar montos correctos" style="strokeWidth=2;html=1;shape=mxgraph.flowchart.decision;whiteSpace=wrap;" vertex="1" parent="1">
          <mxGeometry x="347" y="160" width="160" height="120" as="geometry" />
        </mxCell>
        <mxCell id="YxvmecHKaxo6q0pPdfeQ-8" value="F" style="text;html=1;align=center;verticalAlign=middle;resizable=0;points=[];autosize=1;strokeColor=none;fillColor=none;fontStyle=1" vertex="1" parent="1">
          <mxGeometry x="516" y="160" width="30" height="30" as="geometry" />
        </mxCell>
        <mxCell id="YxvmecHKaxo6q0pPdfeQ-9" value="F" style="text;html=1;align=center;verticalAlign=middle;resizable=0;points=[];autosize=1;strokeColor=none;fillColor=none;fontStyle=1" vertex="1" parent="1">
          <mxGeometry x="504.5" y="10" width="30" height="30" as="geometry" />
        </mxCell>
        <mxCell id="YxvmecHKaxo6q0pPdfeQ-10" value="V" style="text;html=1;align=center;verticalAlign=middle;resizable=0;points=[];autosize=1;strokeColor=none;fillColor=none;fontStyle=1" vertex="1" parent="1">
          <mxGeometry x="369.5" y="130" width="30" height="30" as="geometry" />
        </mxCell>
        <mxCell id="YxvmecHKaxo6q0pPdfeQ-11" value="V" style="text;html=1;align=center;verticalAlign=middle;resizable=0;points=[];autosize=1;strokeColor=none;fillColor=none;fontStyle=1" vertex="1" parent="1">
          <mxGeometry x="369.5" y="290" width="30" height="30" as="geometry" />
        </mxCell>
        <mxCell id="YxvmecHKaxo6q0pPdfeQ-12" value="V" style="text;html=1;align=center;verticalAlign=middle;resizable=0;points=[];autosize=1;strokeColor=none;fillColor=none;fontStyle=1" vertex="1" parent="1">
          <mxGeometry x="369.5" y="450" width="30" height="30" as="geometry" />
        </mxCell>
        <mxCell id="YxvmecHKaxo6q0pPdfeQ-17" style="edgeStyle=orthogonalEdgeStyle;rounded=0;orthogonalLoop=1;jettySize=auto;html=1;" edge="1" parent="1" source="YxvmecHKaxo6q0pPdfeQ-13" target="QBFL5cBLOLrj4FWXCghx-7">
          <mxGeometry relative="1" as="geometry" />
        </mxCell>
        <mxCell id="YxvmecHKaxo6q0pPdfeQ-18" style="edgeStyle=orthogonalEdgeStyle;rounded=0;orthogonalLoop=1;jettySize=auto;html=1;" edge="1" parent="1" source="YxvmecHKaxo6q0pPdfeQ-13" target="QBFL5cBLOLrj4FWXCghx-21">
          <mxGeometry relative="1" as="geometry">
            <Array as="points">
              <mxPoint x="590" y="1010" />
              <mxPoint x="590" y="1220" />
              <mxPoint x="426" y="1220" />
            </Array>
          </mxGeometry>
        </mxCell>
        <mxCell id="YxvmecHKaxo6q0pPdfeQ-13" value="Generar orden de pago" style="strokeWidth=2;html=1;shape=mxgraph.flowchart.decision;whiteSpace=wrap;" vertex="1" parent="1">
          <mxGeometry x="346" y="950" width="160" height="120" as="geometry" />
        </mxCell>
        <mxCell id="YxvmecHKaxo6q0pPdfeQ-19" value="F" style="text;html=1;align=center;verticalAlign=middle;resizable=0;points=[];autosize=1;strokeColor=none;fillColor=none;fontStyle=1" vertex="1" parent="1">
          <mxGeometry x="525" y="950" width="30" height="30" as="geometry" />
        </mxCell>
        <mxCell id="YxvmecHKaxo6q0pPdfeQ-20" value="V" style="text;html=1;align=center;verticalAlign=middle;resizable=0;points=[];autosize=1;strokeColor=none;fillColor=none;fontStyle=1" vertex="1" parent="1">
          <mxGeometry x="290.75" y="950" width="30" height="30" as="geometry" />
        </mxCell>
      </root>
    </mxGraphModel>
  </diagram>
  <diagram name="Diseño de interfaz" id="RT217EXalTeDxOxGGgD3">
    <mxGraphModel grid="1" page="1" gridSize="10" guides="1" tooltips="1" connect="1" arrows="1" fold="1" pageScale="1" pageWidth="827" pageHeight="1169" math="0" shadow="0">
      <root>
        <mxCell id="0" />
        <mxCell id="1" parent="0" />
        <mxCell id="-nVNTNyW4V6h0owAJIA1-81" value="" style="rounded=0;whiteSpace=wrap;html=1;" vertex="1" parent="1">
          <mxGeometry x="-98.75" y="430" width="460" height="370" as="geometry" />
        </mxCell>
        <mxCell id="-nVNTNyW4V6h0owAJIA1-61" value="" style="rounded=0;whiteSpace=wrap;html=1;" vertex="1" parent="1">
          <mxGeometry x="-413" y="460" width="290" height="340" as="geometry" />
        </mxCell>
        <mxCell id="-nVNTNyW4V6h0owAJIA1-3" value="" style="rounded=0;whiteSpace=wrap;html=1;" vertex="1" parent="1">
          <mxGeometry x="1180" y="-170" width="720" height="437.5" as="geometry" />
        </mxCell>
        <mxCell id="-nVNTNyW4V6h0owAJIA1-4" value="" style="rounded=1;whiteSpace=wrap;html=1;" vertex="1" parent="1">
          <mxGeometry x="1200" y="-52.5" width="680" height="300" as="geometry" />
        </mxCell>
        <mxCell id="-nVNTNyW4V6h0owAJIA1-5" value="" style="rounded=1;whiteSpace=wrap;html=1;" vertex="1" parent="1">
          <mxGeometry x="1310" y="-102.5" width="460" height="30" as="geometry" />
        </mxCell>
        <mxCell id="-nVNTNyW4V6h0owAJIA1-6" value="Buscar" style="rounded=1;whiteSpace=wrap;html=1;" vertex="1" parent="1">
          <mxGeometry x="1790" y="-102.5" width="90" height="30" as="geometry" />
        </mxCell>
        <mxCell id="HTu4NgdpabHezGl7Gsyd-1" value="" style="rounded=0;whiteSpace=wrap;html=1;" vertex="1" parent="1">
          <mxGeometry x="-730" y="500" width="290" height="300" as="geometry" />
        </mxCell>
        <mxCell id="HTu4NgdpabHezGl7Gsyd-2" value="Orden de Compra" style="text;html=1;strokeColor=none;fillColor=none;align=center;verticalAlign=middle;whiteSpace=wrap;rounded=0;fontStyle=4" vertex="1" parent="1">
          <mxGeometry x="-648.75" y="510" width="135" height="30" as="geometry" />
        </mxCell>
        <mxCell id="-nVNTNyW4V6h0owAJIA1-35" value="Producto1&lt;span style=&quot;white-space: pre;&quot;&gt;&#x9;&lt;/span&gt;&lt;span style=&quot;white-space: pre;&quot;&gt;&#x9;&lt;/span&gt;&lt;span style=&quot;white-space: pre;&quot;&gt;&#x9;&lt;/span&gt;Cantitdad1" style="rounded=1;whiteSpace=wrap;html=1;" vertex="1" parent="1">
          <mxGeometry x="-700" y="625" width="230" height="30" as="geometry" />
        </mxCell>
        <mxCell id="-nVNTNyW4V6h0owAJIA1-36" value="Producto2&lt;span style=&quot;white-space: pre;&quot;&gt;&#x9;&lt;/span&gt;&lt;span style=&quot;white-space: pre;&quot;&gt;&#x9;&lt;/span&gt;&lt;span style=&quot;white-space: pre;&quot;&gt;&#x9;&lt;/span&gt;Cantitdad2" style="rounded=1;whiteSpace=wrap;html=1;" vertex="1" parent="1">
          <mxGeometry x="-700" y="655" width="230" height="30" as="geometry" />
        </mxCell>
        <mxCell id="-nVNTNyW4V6h0owAJIA1-37" value="Producto3&lt;span style=&quot;white-space: pre;&quot;&gt;&#x9;&lt;/span&gt;&lt;span style=&quot;white-space: pre;&quot;&gt;&#x9;&lt;/span&gt;&lt;span style=&quot;white-space: pre;&quot;&gt;&#x9;&lt;/span&gt;Cantitdad3" style="rounded=1;whiteSpace=wrap;html=1;" vertex="1" parent="1">
          <mxGeometry x="-700" y="685" width="230" height="30" as="geometry" />
        </mxCell>
        <mxCell id="-nVNTNyW4V6h0owAJIA1-38" value="Producto4&lt;span style=&quot;white-space: pre;&quot;&gt;&#x9;&lt;/span&gt;&lt;span style=&quot;white-space: pre;&quot;&gt;&#x9;&lt;/span&gt;&lt;span style=&quot;white-space: pre;&quot;&gt;&#x9;&lt;/span&gt;Cantitdad4" style="rounded=1;whiteSpace=wrap;html=1;" vertex="1" parent="1">
          <mxGeometry x="-700" y="715" width="230" height="30" as="geometry" />
        </mxCell>
        <mxCell id="-nVNTNyW4V6h0owAJIA1-47" value="Fecha" style="rounded=1;whiteSpace=wrap;html=1;" vertex="1" parent="1">
          <mxGeometry x="-700" y="570" width="72.5" height="30" as="geometry" />
        </mxCell>
        <mxCell id="-nVNTNyW4V6h0owAJIA1-60" value="ID Orden" style="rounded=1;whiteSpace=wrap;html=1;" vertex="1" parent="1">
          <mxGeometry x="-542.5" y="570" width="72.5" height="30" as="geometry" />
        </mxCell>
        <mxCell id="-nVNTNyW4V6h0owAJIA1-98" value="ID Orden de compra" style="rounded=1;whiteSpace=wrap;html=1;" vertex="1" parent="1">
          <mxGeometry x="31.25" y="500" width="122.5" height="30" as="geometry" />
        </mxCell>
        <mxCell id="-nVNTNyW4V6h0owAJIA1-84" value="&lt;span style=&quot;white-space: pre;&quot;&gt;&#x9;&lt;/span&gt;&lt;span style=&quot;white-space: pre;&quot;&gt;&#x9;&lt;/span&gt;Producto1&amp;nbsp; &amp;nbsp; &amp;nbsp; Cantidad1&lt;span style=&quot;white-space: pre;&quot;&gt;&#x9;&lt;/span&gt;&lt;span style=&quot;white-space: pre;&quot;&gt;&#x9;&lt;/span&gt;&amp;nbsp; &amp;nbsp; &amp;nbsp; &amp;nbsp;$$&lt;span style=&quot;white-space: pre;&quot;&gt;&#x9;&lt;/span&gt;&lt;span style=&quot;white-space: pre;&quot;&gt;&#x9;&lt;span style=&quot;white-space: pre;&quot;&gt;&#x9;&lt;/span&gt;&lt;/span&gt;$$" style="rounded=1;whiteSpace=wrap;html=1;align=left;" vertex="1" parent="1">
          <mxGeometry x="-68.75" y="575" width="400" height="30" as="geometry" />
        </mxCell>
        <mxCell id="-nVNTNyW4V6h0owAJIA1-82" value="Factura" style="text;html=1;strokeColor=none;fillColor=none;align=center;verticalAlign=middle;whiteSpace=wrap;rounded=0;fontStyle=4" vertex="1" parent="1">
          <mxGeometry x="68.75" y="440" width="135" height="30" as="geometry" />
        </mxCell>
        <mxCell id="-nVNTNyW4V6h0owAJIA1-88" value="Fecha" style="rounded=1;whiteSpace=wrap;html=1;" vertex="1" parent="1">
          <mxGeometry x="-68.75" y="500" width="72.5" height="30" as="geometry" />
        </mxCell>
        <mxCell id="-nVNTNyW4V6h0owAJIA1-48" value="Proveedor&lt;span style=&quot;white-space: pre;&quot;&gt;&#x9;&lt;span style=&quot;white-space: pre;&quot;&gt;&#x9;&lt;/span&gt;&lt;span style=&quot;white-space: pre;&quot;&gt;&#x9;&lt;/span&gt;&lt;/span&gt;&lt;span style=&quot;white-space: pre;&quot;&gt;&#x9;&lt;/span&gt;Usuario" style="rounded=1;whiteSpace=wrap;html=1;" vertex="1" parent="1">
          <mxGeometry x="-700" y="760" width="230" height="30" as="geometry" />
        </mxCell>
        <mxCell id="-nVNTNyW4V6h0owAJIA1-69" value="Proveedor&lt;span style=&quot;white-space: pre;&quot;&gt;&#x9;&lt;span style=&quot;white-space: pre;&quot;&gt;&#x9;&lt;/span&gt;&lt;span style=&quot;white-space: pre;&quot;&gt;&#x9;&lt;/span&gt;&lt;/span&gt;&lt;span style=&quot;white-space: pre;&quot;&gt;&#x9;&lt;/span&gt;Usuario" style="rounded=1;whiteSpace=wrap;html=1;" vertex="1" parent="1">
          <mxGeometry x="-380" y="760" width="230" height="30" as="geometry" />
        </mxCell>
        <mxCell id="-nVNTNyW4V6h0owAJIA1-90" value="ID Factura" style="rounded=1;whiteSpace=wrap;html=1;" vertex="1" parent="1">
          <mxGeometry x="170" y="500" width="72.5" height="30" as="geometry" />
        </mxCell>
        <mxCell id="-nVNTNyW4V6h0owAJIA1-66" value="Producto3&lt;span style=&quot;white-space: pre;&quot;&gt;&#x9;&lt;/span&gt;&lt;span style=&quot;white-space: pre;&quot;&gt;&#x9;&lt;/span&gt;&lt;span style=&quot;white-space: pre;&quot;&gt;&#x9;&lt;/span&gt;Cantitdad3" style="rounded=1;whiteSpace=wrap;html=1;" vertex="1" parent="1">
          <mxGeometry x="-380" y="685" width="230" height="30" as="geometry" />
        </mxCell>
        <mxCell id="-nVNTNyW4V6h0owAJIA1-67" value="Producto4&lt;span style=&quot;white-space: pre;&quot;&gt;&#x9;&lt;/span&gt;&lt;span style=&quot;white-space: pre;&quot;&gt;&#x9;&lt;/span&gt;&lt;span style=&quot;white-space: pre;&quot;&gt;&#x9;&lt;/span&gt;Cantitdad4" style="rounded=1;whiteSpace=wrap;html=1;" vertex="1" parent="1">
          <mxGeometry x="-380" y="715" width="230" height="30" as="geometry" />
        </mxCell>
        <mxCell id="-nVNTNyW4V6h0owAJIA1-68" value="Fecha" style="rounded=1;whiteSpace=wrap;html=1;" vertex="1" parent="1">
          <mxGeometry x="-380" y="570" width="72.5" height="30" as="geometry" />
        </mxCell>
        <mxCell id="-nVNTNyW4V6h0owAJIA1-70" value="ID Rémito" style="rounded=1;whiteSpace=wrap;html=1;" vertex="1" parent="1">
          <mxGeometry x="-222.5" y="570" width="72.5" height="30" as="geometry" />
        </mxCell>
        <mxCell id="-nVNTNyW4V6h0owAJIA1-91" value="Producto&lt;span style=&quot;white-space: pre;&quot;&gt;&#x9;&lt;/span&gt;&lt;span style=&quot;white-space: pre;&quot;&gt;&#x9;&lt;/span&gt;Cantidad&lt;span style=&quot;white-space: pre;&quot;&gt;&#x9;&lt;/span&gt;&lt;span style=&quot;white-space: pre;&quot;&gt;&#x9;&lt;/span&gt;Precio unitario&lt;span style=&quot;white-space: pre;&quot;&gt;&#x9;&lt;span style=&quot;white-space: pre;&quot;&gt;&#x9;&lt;/span&gt;&lt;/span&gt;Precio" style="rounded=1;whiteSpace=wrap;html=1;" vertex="1" parent="1">
          <mxGeometry x="-68.75" y="545" width="400" height="30" as="geometry" />
        </mxCell>
        <mxCell id="-nVNTNyW4V6h0owAJIA1-64" value="Producto1&lt;span style=&quot;white-space: pre;&quot;&gt;&#x9;&lt;/span&gt;&lt;span style=&quot;white-space: pre;&quot;&gt;&#x9;&lt;/span&gt;&lt;span style=&quot;white-space: pre;&quot;&gt;&#x9;&lt;/span&gt;Cantitdad1" style="rounded=1;whiteSpace=wrap;html=1;" vertex="1" parent="1">
          <mxGeometry x="-380" y="625" width="230" height="30" as="geometry" />
        </mxCell>
        <mxCell id="-nVNTNyW4V6h0owAJIA1-65" value="Producto2&lt;span style=&quot;white-space: pre;&quot;&gt;&#x9;&lt;/span&gt;&lt;span style=&quot;white-space: pre;&quot;&gt;&#x9;&lt;/span&gt;&lt;span style=&quot;white-space: pre;&quot;&gt;&#x9;&lt;/span&gt;Cantitdad2" style="rounded=1;whiteSpace=wrap;html=1;" vertex="1" parent="1">
          <mxGeometry x="-380" y="655" width="230" height="30" as="geometry" />
        </mxCell>
        <mxCell id="-nVNTNyW4V6h0owAJIA1-92" value="&lt;span style=&quot;white-space: pre;&quot;&gt;&#x9;&lt;/span&gt;&lt;span style=&quot;white-space: pre;&quot;&gt;&#x9;&lt;/span&gt;Producto2&amp;nbsp; &amp;nbsp; &amp;nbsp; Cantidad2&lt;span style=&quot;white-space: pre;&quot;&gt;&#x9;&lt;/span&gt;&lt;span style=&quot;white-space: pre;&quot;&gt;&#x9;&lt;/span&gt;&amp;nbsp; &amp;nbsp; &amp;nbsp; &amp;nbsp;$$&lt;span style=&quot;white-space: pre;&quot;&gt;&#x9;&lt;/span&gt;&lt;span style=&quot;white-space: pre;&quot;&gt;&#x9;&lt;span style=&quot;white-space: pre;&quot;&gt;&#x9;&lt;/span&gt;&lt;/span&gt;$$" style="rounded=1;whiteSpace=wrap;html=1;align=left;" vertex="1" parent="1">
          <mxGeometry x="-68.75" y="605" width="400" height="30" as="geometry" />
        </mxCell>
        <mxCell id="-nVNTNyW4V6h0owAJIA1-93" value="&lt;span style=&quot;white-space: pre;&quot;&gt;&#x9;&lt;/span&gt;&lt;span style=&quot;white-space: pre;&quot;&gt;&#x9;&lt;/span&gt;Producto3&amp;nbsp; &amp;nbsp; &amp;nbsp; Cantidad3&lt;span style=&quot;white-space: pre;&quot;&gt;&#x9;&lt;/span&gt;&lt;span style=&quot;white-space: pre;&quot;&gt;&#x9;&lt;/span&gt;&amp;nbsp; &amp;nbsp; &amp;nbsp; &amp;nbsp;$$&lt;span style=&quot;white-space: pre;&quot;&gt;&#x9;&lt;/span&gt;&lt;span style=&quot;white-space: pre;&quot;&gt;&#x9;&lt;span style=&quot;white-space: pre;&quot;&gt;&#x9;&lt;/span&gt;&lt;/span&gt;$$" style="rounded=1;whiteSpace=wrap;html=1;align=left;" vertex="1" parent="1">
          <mxGeometry x="-68.75" y="635" width="400" height="30" as="geometry" />
        </mxCell>
        <mxCell id="-nVNTNyW4V6h0owAJIA1-94" value="&lt;span style=&quot;white-space: pre;&quot;&gt;&#x9;&lt;/span&gt;&lt;span style=&quot;white-space: pre;&quot;&gt;&#x9;&lt;/span&gt;Producto4&amp;nbsp; &amp;nbsp; &amp;nbsp; Cantidad4&lt;span style=&quot;white-space: pre;&quot;&gt;&#x9;&lt;/span&gt;&lt;span style=&quot;white-space: pre;&quot;&gt;&#x9;&lt;/span&gt;&amp;nbsp; &amp;nbsp; &amp;nbsp; &amp;nbsp;$$&lt;span style=&quot;white-space: pre;&quot;&gt;&#x9;&lt;/span&gt;&lt;span style=&quot;white-space: pre;&quot;&gt;&#x9;&lt;span style=&quot;white-space: pre;&quot;&gt;&#x9;&lt;/span&gt;&lt;/span&gt;$$" style="rounded=1;whiteSpace=wrap;html=1;align=left;" vertex="1" parent="1">
          <mxGeometry x="-68.75" y="665" width="400" height="30" as="geometry" />
        </mxCell>
        <mxCell id="-nVNTNyW4V6h0owAJIA1-95" value="Total: $$$$" style="rounded=1;whiteSpace=wrap;html=1;" vertex="1" parent="1">
          <mxGeometry x="191.25" y="710" width="140" height="30" as="geometry" />
        </mxCell>
        <mxCell id="-nVNTNyW4V6h0owAJIA1-97" value="ID Rémito" style="rounded=1;whiteSpace=wrap;html=1;" vertex="1" parent="1">
          <mxGeometry x="258.75" y="500" width="72.5" height="30" as="geometry" />
        </mxCell>
        <mxCell id="-nVNTNyW4V6h0owAJIA1-89" value="Proveedor&lt;span style=&quot;white-space: pre;&quot;&gt;&#x9;&lt;span style=&quot;white-space: pre;&quot;&gt;&#x9;&lt;/span&gt;&lt;span style=&quot;white-space: pre;&quot;&gt;&#x9;&lt;span style=&quot;white-space: pre;&quot;&gt;&#x9;&lt;/span&gt;&lt;span style=&quot;white-space: pre;&quot;&gt;&#x9;&lt;/span&gt;&lt;span style=&quot;white-space: pre;&quot;&gt;&#x9;&lt;/span&gt;&lt;/span&gt;&lt;/span&gt;&lt;span style=&quot;white-space: pre;&quot;&gt;&#x9;&lt;/span&gt;Usuario" style="rounded=1;whiteSpace=wrap;html=1;" vertex="1" parent="1">
          <mxGeometry x="-58.75" y="760" width="390" height="30" as="geometry" />
        </mxCell>
        <mxCell id="-nVNTNyW4V6h0owAJIA1-100" value="ID Orden de compra" style="rounded=1;whiteSpace=wrap;html=1;" vertex="1" parent="1">
          <mxGeometry x="-326.25" y="520" width="122.5" height="30" as="geometry" />
        </mxCell>
        <mxCell id="-nVNTNyW4V6h0owAJIA1-101" value="" style="rounded=0;whiteSpace=wrap;html=1;" vertex="1" parent="1">
          <mxGeometry x="370" y="505" width="350" height="295" as="geometry" />
        </mxCell>
        <mxCell id="-nVNTNyW4V6h0owAJIA1-102" value="ID Fctura" style="rounded=1;whiteSpace=wrap;html=1;" vertex="1" parent="1">
          <mxGeometry x="630" y="570" width="72.5" height="30" as="geometry" />
        </mxCell>
        <mxCell id="-nVNTNyW4V6h0owAJIA1-107" value="Total deuda restante: $$$" style="rounded=1;whiteSpace=wrap;html=1;" vertex="1" parent="1">
          <mxGeometry x="509.25" y="690" width="190" height="30" as="geometry" />
        </mxCell>
        <mxCell id="-nVNTNyW4V6h0owAJIA1-110" value="Orden de pago" style="text;html=1;strokeColor=none;fillColor=none;align=center;verticalAlign=middle;whiteSpace=wrap;rounded=0;fontStyle=4" vertex="1" parent="1">
          <mxGeometry x="477.5" y="515" width="135" height="30" as="geometry" />
        </mxCell>
        <mxCell id="-nVNTNyW4V6h0owAJIA1-111" value="Fecha" style="rounded=1;whiteSpace=wrap;html=1;" vertex="1" parent="1">
          <mxGeometry x="400" y="570" width="72.5" height="30" as="geometry" />
        </mxCell>
        <mxCell id="-nVNTNyW4V6h0owAJIA1-113" value="Proveedor&lt;span style=&quot;white-space: pre;&quot;&gt;&#x9;&lt;span style=&quot;white-space: pre;&quot;&gt;&#x9;&lt;/span&gt;&lt;span style=&quot;white-space: pre;&quot;&gt;&lt;span style=&quot;white-space: pre;&quot;&gt;&#x9;&lt;/span&gt;&lt;span style=&quot;white-space: pre;&quot;&gt;&#x9;&lt;/span&gt;&lt;/span&gt;&lt;/span&gt;&lt;span style=&quot;white-space: pre;&quot;&gt;&#x9;&lt;/span&gt;Usuario" style="rounded=1;whiteSpace=wrap;html=1;" vertex="1" parent="1">
          <mxGeometry x="432.5" y="745" width="240" height="30" as="geometry" />
        </mxCell>
        <mxCell id="-nVNTNyW4V6h0owAJIA1-115" value="ID Orden de pago" style="rounded=1;whiteSpace=wrap;html=1;" vertex="1" parent="1">
          <mxGeometry x="490" y="570" width="122.5" height="30" as="geometry" />
        </mxCell>
        <mxCell id="-nVNTNyW4V6h0owAJIA1-116" value="Monto&lt;span style=&quot;white-space: pre;&quot;&gt;&#x9;&lt;/span&gt;&lt;span style=&quot;white-space: pre;&quot;&gt;&#x9;&lt;/span&gt;&lt;span style=&quot;white-space: pre;&quot;&gt;&#x9;&lt;/span&gt;$$$$" style="rounded=1;whiteSpace=wrap;html=1;" vertex="1" parent="1">
          <mxGeometry x="404" y="620" width="296" height="30" as="geometry" />
        </mxCell>
        <mxCell id="-nVNTNyW4V6h0owAJIA1-117" value="Método de pago&amp;nbsp;&lt;span style=&quot;white-space: pre;&quot;&gt;&#x9;&lt;/span&gt;$$$$" style="rounded=1;whiteSpace=wrap;html=1;" vertex="1" parent="1">
          <mxGeometry x="403.25" y="650" width="296" height="30" as="geometry" />
        </mxCell>
        <mxCell id="-nVNTNyW4V6h0owAJIA1-62" value="Rémito" style="text;html=1;strokeColor=none;fillColor=none;align=center;verticalAlign=middle;whiteSpace=wrap;rounded=0;fontStyle=4" vertex="1" parent="1">
          <mxGeometry x="-335.5" y="470" width="135" height="30" as="geometry" />
        </mxCell>
        <mxCell id="qK63a0NS9H5xBYTUuC_1-3" value="" style="rounded=0;whiteSpace=wrap;html=1;" vertex="1" parent="1">
          <mxGeometry x="-700" y="-95" width="380" height="350" as="geometry" />
        </mxCell>
        <mxCell id="qK63a0NS9H5xBYTUuC_1-4" value="Generar orden de compra" style="text;html=1;strokeColor=none;fillColor=none;align=center;verticalAlign=middle;whiteSpace=wrap;rounded=0;fontStyle=4" vertex="1" parent="1">
          <mxGeometry x="-592.5" y="-95" width="168.75" height="30" as="geometry" />
        </mxCell>
        <mxCell id="qK63a0NS9H5xBYTUuC_1-5" value="" style="rounded=1;whiteSpace=wrap;html=1;" vertex="1" parent="1">
          <mxGeometry x="-605" y="-50" width="93.75" height="30" as="geometry" />
        </mxCell>
        <mxCell id="qK63a0NS9H5xBYTUuC_1-11" value="" style="rounded=1;whiteSpace=wrap;html=1;" vertex="1" parent="1">
          <mxGeometry x="-602.5" y="135" width="262.5" height="30" as="geometry" />
        </mxCell>
        <mxCell id="qK63a0NS9H5xBYTUuC_1-14" value="Producto" style="text;html=1;align=center;verticalAlign=middle;resizable=0;points=[];autosize=1;strokeColor=none;fillColor=none;" vertex="1" parent="1">
          <mxGeometry x="-690" y="-50" width="70" height="30" as="geometry" />
        </mxCell>
        <mxCell id="qK63a0NS9H5xBYTUuC_1-15" value="" style="rounded=1;whiteSpace=wrap;html=1;" vertex="1" parent="1">
          <mxGeometry x="-423.75" y="-50" width="83.75" height="30" as="geometry" />
        </mxCell>
        <mxCell id="qK63a0NS9H5xBYTUuC_1-16" value="Cantidad" style="text;html=1;align=center;verticalAlign=middle;resizable=0;points=[];autosize=1;strokeColor=none;fillColor=none;" vertex="1" parent="1">
          <mxGeometry x="-502.5" y="-50" width="70" height="30" as="geometry" />
        </mxCell>
        <mxCell id="qK63a0NS9H5xBYTUuC_1-17" value="Proveedor" style="text;html=1;align=center;verticalAlign=middle;resizable=0;points=[];autosize=1;strokeColor=none;fillColor=none;" vertex="1" parent="1">
          <mxGeometry x="-690" y="135" width="80" height="30" as="geometry" />
        </mxCell>
        <mxCell id="qK63a0NS9H5xBYTUuC_1-19" value="Cantidad" style="text;html=1;align=center;verticalAlign=middle;resizable=0;points=[];autosize=1;strokeColor=none;fillColor=none;" vertex="1" parent="1">
          <mxGeometry x="-502.5" y="-5" width="70" height="30" as="geometry" />
        </mxCell>
        <mxCell id="qK63a0NS9H5xBYTUuC_1-20" value="" style="rounded=1;whiteSpace=wrap;html=1;" vertex="1" parent="1">
          <mxGeometry x="-423.75" y="-5" width="83.75" height="30" as="geometry" />
        </mxCell>
        <mxCell id="qK63a0NS9H5xBYTUuC_1-21" value="" style="rounded=1;whiteSpace=wrap;html=1;" vertex="1" parent="1">
          <mxGeometry x="-605" y="-5" width="93.75" height="30" as="geometry" />
        </mxCell>
        <mxCell id="qK63a0NS9H5xBYTUuC_1-22" value="Producto" style="text;html=1;align=center;verticalAlign=middle;resizable=0;points=[];autosize=1;strokeColor=none;fillColor=none;" vertex="1" parent="1">
          <mxGeometry x="-690" y="-5" width="70" height="30" as="geometry" />
        </mxCell>
        <mxCell id="qK63a0NS9H5xBYTUuC_1-23" value="Cantidad" style="text;html=1;align=center;verticalAlign=middle;resizable=0;points=[];autosize=1;strokeColor=none;fillColor=none;" vertex="1" parent="1">
          <mxGeometry x="-502.5" y="35" width="70" height="30" as="geometry" />
        </mxCell>
        <mxCell id="qK63a0NS9H5xBYTUuC_1-24" value="" style="rounded=1;whiteSpace=wrap;html=1;" vertex="1" parent="1">
          <mxGeometry x="-423.75" y="35" width="83.75" height="30" as="geometry" />
        </mxCell>
        <mxCell id="qK63a0NS9H5xBYTUuC_1-25" value="" style="rounded=1;whiteSpace=wrap;html=1;" vertex="1" parent="1">
          <mxGeometry x="-605" y="35" width="93.75" height="30" as="geometry" />
        </mxCell>
        <mxCell id="qK63a0NS9H5xBYTUuC_1-26" value="Producto" style="text;html=1;align=center;verticalAlign=middle;resizable=0;points=[];autosize=1;strokeColor=none;fillColor=none;" vertex="1" parent="1">
          <mxGeometry x="-690" y="35" width="70" height="30" as="geometry" />
        </mxCell>
        <mxCell id="qK63a0NS9H5xBYTUuC_1-28" value="Generar" style="rounded=1;whiteSpace=wrap;html=1;" vertex="1" parent="1">
          <mxGeometry x="-637.5" y="185" width="122.5" height="30" as="geometry" />
        </mxCell>
        <mxCell id="qK63a0NS9H5xBYTUuC_1-29" value="Cancelar" style="rounded=1;whiteSpace=wrap;html=1;" vertex="1" parent="1">
          <mxGeometry x="-490" y="185" width="122.5" height="30" as="geometry" />
        </mxCell>
        <mxCell id="71QLxs91T1SFbu01BsWy-1" value="&lt;font style=&quot;font-size: 36px;&quot;&gt;+&lt;/font&gt;" style="rounded=1;whiteSpace=wrap;html=1;" vertex="1" parent="1">
          <mxGeometry x="-540" y="85" width="70" height="30" as="geometry" />
        </mxCell>
        <mxCell id="71QLxs91T1SFbu01BsWy-2" value="" style="rounded=0;whiteSpace=wrap;html=1;" vertex="1" parent="1">
          <mxGeometry x="-280" y="-165" width="380" height="420" as="geometry" />
        </mxCell>
        <mxCell id="71QLxs91T1SFbu01BsWy-3" value="Cargar rémito" style="text;html=1;strokeColor=none;fillColor=none;align=center;verticalAlign=middle;whiteSpace=wrap;rounded=0;fontStyle=4" vertex="1" parent="1">
          <mxGeometry x="-167.62" y="-155" width="168.75" height="30" as="geometry" />
        </mxCell>
        <mxCell id="71QLxs91T1SFbu01BsWy-5" value="" style="rounded=1;whiteSpace=wrap;html=1;" vertex="1" parent="1">
          <mxGeometry x="-180.62" y="155" width="261.12" height="30" as="geometry" />
        </mxCell>
        <mxCell id="71QLxs91T1SFbu01BsWy-8" value="Cantidad" style="text;html=1;align=center;verticalAlign=middle;resizable=0;points=[];autosize=1;strokeColor=none;fillColor=none;" vertex="1" parent="1">
          <mxGeometry x="-82.5" y="-100" width="70" height="30" as="geometry" />
        </mxCell>
        <mxCell id="71QLxs91T1SFbu01BsWy-9" value="Proveedor" style="text;html=1;align=center;verticalAlign=middle;resizable=0;points=[];autosize=1;strokeColor=none;fillColor=none;" vertex="1" parent="1">
          <mxGeometry x="-268.12" y="155" width="80" height="30" as="geometry" />
        </mxCell>
        <mxCell id="71QLxs91T1SFbu01BsWy-10" value="Cantidad" style="text;html=1;align=center;verticalAlign=middle;resizable=0;points=[];autosize=1;strokeColor=none;fillColor=none;" vertex="1" parent="1">
          <mxGeometry x="-80.75" y="-72.5" width="70" height="30" as="geometry" />
        </mxCell>
        <mxCell id="71QLxs91T1SFbu01BsWy-12" value="" style="rounded=1;whiteSpace=wrap;html=1;" vertex="1" parent="1">
          <mxGeometry x="-183.25" y="-72.5" width="93.75" height="30" as="geometry" />
        </mxCell>
        <mxCell id="71QLxs91T1SFbu01BsWy-13" value="Producto" style="text;html=1;align=center;verticalAlign=middle;resizable=0;points=[];autosize=1;strokeColor=none;fillColor=none;" vertex="1" parent="1">
          <mxGeometry x="-268.25" y="-72.5" width="70" height="30" as="geometry" />
        </mxCell>
        <mxCell id="71QLxs91T1SFbu01BsWy-14" value="Cantidad" style="text;html=1;align=center;verticalAlign=middle;resizable=0;points=[];autosize=1;strokeColor=none;fillColor=none;" vertex="1" parent="1">
          <mxGeometry x="-80.75" y="-32.5" width="70" height="30" as="geometry" />
        </mxCell>
        <mxCell id="71QLxs91T1SFbu01BsWy-15" value="" style="rounded=1;whiteSpace=wrap;html=1;" vertex="1" parent="1">
          <mxGeometry x="-2" y="-32.5" width="84.25" height="30" as="geometry" />
        </mxCell>
        <mxCell id="71QLxs91T1SFbu01BsWy-16" value="" style="rounded=1;whiteSpace=wrap;html=1;" vertex="1" parent="1">
          <mxGeometry x="-183.25" y="-32.5" width="93.75" height="30" as="geometry" />
        </mxCell>
        <mxCell id="71QLxs91T1SFbu01BsWy-17" value="Producto" style="text;html=1;align=center;verticalAlign=middle;resizable=0;points=[];autosize=1;strokeColor=none;fillColor=none;" vertex="1" parent="1">
          <mxGeometry x="-268.25" y="-32.5" width="70" height="30" as="geometry" />
        </mxCell>
        <mxCell id="71QLxs91T1SFbu01BsWy-18" value="Cargar" style="rounded=1;whiteSpace=wrap;html=1;" vertex="1" parent="1">
          <mxGeometry x="-240.75" y="205" width="122.5" height="30" as="geometry" />
        </mxCell>
        <mxCell id="71QLxs91T1SFbu01BsWy-19" value="Cancelar" style="rounded=1;whiteSpace=wrap;html=1;" vertex="1" parent="1">
          <mxGeometry x="-56.5" y="205" width="122.5" height="30" as="geometry" />
        </mxCell>
        <mxCell id="71QLxs91T1SFbu01BsWy-21" value="Producto" style="text;html=1;align=center;verticalAlign=middle;resizable=0;points=[];autosize=1;strokeColor=none;fillColor=none;" vertex="1" parent="1">
          <mxGeometry x="-268.25" y="-117.5" width="70" height="30" as="geometry" />
        </mxCell>
        <mxCell id="71QLxs91T1SFbu01BsWy-22" value="" style="rounded=1;whiteSpace=wrap;html=1;" vertex="1" parent="1">
          <mxGeometry x="-183.25" y="-117.5" width="93.75" height="30" as="geometry" />
        </mxCell>
        <mxCell id="71QLxs91T1SFbu01BsWy-23" value="Cantidad" style="text;html=1;align=center;verticalAlign=middle;resizable=0;points=[];autosize=1;strokeColor=none;fillColor=none;" vertex="1" parent="1">
          <mxGeometry x="-80.75" y="-117.5" width="70" height="30" as="geometry" />
        </mxCell>
        <mxCell id="71QLxs91T1SFbu01BsWy-24" value="" style="rounded=1;whiteSpace=wrap;html=1;" vertex="1" parent="1">
          <mxGeometry x="-2" y="-117.5" width="84.25" height="30" as="geometry" />
        </mxCell>
        <mxCell id="71QLxs91T1SFbu01BsWy-25" value="" style="rounded=1;whiteSpace=wrap;html=1;" vertex="1" parent="1">
          <mxGeometry x="-2" y="-72.5" width="84.25" height="30" as="geometry" />
        </mxCell>
        <mxCell id="71QLxs91T1SFbu01BsWy-56" value="" style="rounded=1;whiteSpace=wrap;html=1;" vertex="1" parent="1">
          <mxGeometry x="-180" y="115" width="260" height="30" as="geometry" />
        </mxCell>
        <mxCell id="71QLxs91T1SFbu01BsWy-57" value="ID Remito" style="text;html=1;align=center;verticalAlign=middle;resizable=0;points=[];autosize=1;strokeColor=none;fillColor=none;" vertex="1" parent="1">
          <mxGeometry x="-268.12" y="115" width="80" height="30" as="geometry" />
        </mxCell>
        <mxCell id="71QLxs91T1SFbu01BsWy-58" value="" style="rounded=1;whiteSpace=wrap;html=1;" vertex="1" parent="1">
          <mxGeometry x="-129.5" y="75" width="210" height="30" as="geometry" />
        </mxCell>
        <mxCell id="71QLxs91T1SFbu01BsWy-59" value="ID orden de compra" style="text;html=1;align=center;verticalAlign=middle;resizable=0;points=[];autosize=1;strokeColor=none;fillColor=none;" vertex="1" parent="1">
          <mxGeometry x="-268.12" y="75" width="130" height="30" as="geometry" />
        </mxCell>
        <mxCell id="71QLxs91T1SFbu01BsWy-63" value="" style="rounded=0;whiteSpace=wrap;html=1;" vertex="1" parent="1">
          <mxGeometry x="135" y="-160" width="575" height="420" as="geometry" />
        </mxCell>
        <mxCell id="qK63a0NS9H5xBYTUuC_1-30" value="&lt;font style=&quot;font-size: 36px;&quot;&gt;+&lt;/font&gt;" style="rounded=1;whiteSpace=wrap;html=1;" vertex="1" parent="1">
          <mxGeometry x="-118.24999999999994" y="15" width="70" height="30" as="geometry" />
        </mxCell>
        <mxCell id="71QLxs91T1SFbu01BsWy-64" value="Cargar factura" style="text;html=1;strokeColor=none;fillColor=none;align=center;verticalAlign=middle;whiteSpace=wrap;rounded=0;fontStyle=4" vertex="1" parent="1">
          <mxGeometry x="349.38" y="-145" width="168.75" height="30" as="geometry" />
        </mxCell>
        <mxCell id="71QLxs91T1SFbu01BsWy-65" value="" style="rounded=1;whiteSpace=wrap;html=1;" vertex="1" parent="1">
          <mxGeometry x="230" y="-95" width="93.75" height="30" as="geometry" />
        </mxCell>
        <mxCell id="71QLxs91T1SFbu01BsWy-66" value="" style="rounded=1;whiteSpace=wrap;html=1;" vertex="1" parent="1">
          <mxGeometry x="312.5" y="165" width="321.12" height="30" as="geometry" />
        </mxCell>
        <mxCell id="71QLxs91T1SFbu01BsWy-67" value="Producto" style="text;html=1;align=center;verticalAlign=middle;resizable=0;points=[];autosize=1;strokeColor=none;fillColor=none;" vertex="1" parent="1">
          <mxGeometry x="145" y="-95" width="70" height="30" as="geometry" />
        </mxCell>
        <mxCell id="71QLxs91T1SFbu01BsWy-68" value="Cantidad" style="text;html=1;align=center;verticalAlign=middle;resizable=0;points=[];autosize=1;strokeColor=none;fillColor=none;" vertex="1" parent="1">
          <mxGeometry x="332.5" y="-95" width="70" height="30" as="geometry" />
        </mxCell>
        <mxCell id="71QLxs91T1SFbu01BsWy-69" value="Proveedor" style="text;html=1;align=center;verticalAlign=middle;resizable=0;points=[];autosize=1;strokeColor=none;fillColor=none;" vertex="1" parent="1">
          <mxGeometry x="230" y="165" width="80" height="30" as="geometry" />
        </mxCell>
        <mxCell id="71QLxs91T1SFbu01BsWy-70" value="Cantidad" style="text;html=1;align=center;verticalAlign=middle;resizable=0;points=[];autosize=1;strokeColor=none;fillColor=none;" vertex="1" parent="1">
          <mxGeometry x="332.5" y="-50" width="70" height="30" as="geometry" />
        </mxCell>
        <mxCell id="71QLxs91T1SFbu01BsWy-71" value="" style="rounded=1;whiteSpace=wrap;html=1;" vertex="1" parent="1">
          <mxGeometry x="230" y="-50" width="93.75" height="30" as="geometry" />
        </mxCell>
        <mxCell id="71QLxs91T1SFbu01BsWy-72" value="Producto" style="text;html=1;align=center;verticalAlign=middle;resizable=0;points=[];autosize=1;strokeColor=none;fillColor=none;" vertex="1" parent="1">
          <mxGeometry x="145" y="-50" width="70" height="30" as="geometry" />
        </mxCell>
        <mxCell id="71QLxs91T1SFbu01BsWy-73" value="Cantidad" style="text;html=1;align=center;verticalAlign=middle;resizable=0;points=[];autosize=1;strokeColor=none;fillColor=none;" vertex="1" parent="1">
          <mxGeometry x="332.5" y="-10" width="70" height="30" as="geometry" />
        </mxCell>
        <mxCell id="71QLxs91T1SFbu01BsWy-74" value="" style="rounded=1;whiteSpace=wrap;html=1;" vertex="1" parent="1">
          <mxGeometry x="411.25" y="-10" width="84.25" height="30" as="geometry" />
        </mxCell>
        <mxCell id="71QLxs91T1SFbu01BsWy-75" value="" style="rounded=1;whiteSpace=wrap;html=1;" vertex="1" parent="1">
          <mxGeometry x="230" y="-10" width="93.75" height="30" as="geometry" />
        </mxCell>
        <mxCell id="71QLxs91T1SFbu01BsWy-76" value="Producto" style="text;html=1;align=center;verticalAlign=middle;resizable=0;points=[];autosize=1;strokeColor=none;fillColor=none;" vertex="1" parent="1">
          <mxGeometry x="145" y="-10" width="70" height="30" as="geometry" />
        </mxCell>
        <mxCell id="71QLxs91T1SFbu01BsWy-77" value="Cargar" style="rounded=1;whiteSpace=wrap;html=1;" vertex="1" parent="1">
          <mxGeometry x="290" y="215" width="122.5" height="30" as="geometry" />
        </mxCell>
        <mxCell id="71QLxs91T1SFbu01BsWy-78" value="Cancelar" style="rounded=1;whiteSpace=wrap;html=1;" vertex="1" parent="1">
          <mxGeometry x="496.25" y="215" width="122.5" height="30" as="geometry" />
        </mxCell>
        <mxCell id="71QLxs91T1SFbu01BsWy-79" value="Producto" style="text;html=1;align=center;verticalAlign=middle;resizable=0;points=[];autosize=1;strokeColor=none;fillColor=none;" vertex="1" parent="1">
          <mxGeometry x="145" y="-95" width="70" height="30" as="geometry" />
        </mxCell>
        <mxCell id="71QLxs91T1SFbu01BsWy-80" value="" style="rounded=1;whiteSpace=wrap;html=1;" vertex="1" parent="1">
          <mxGeometry x="230" y="-95" width="93.75" height="30" as="geometry" />
        </mxCell>
        <mxCell id="71QLxs91T1SFbu01BsWy-81" value="Cantidad" style="text;html=1;align=center;verticalAlign=middle;resizable=0;points=[];autosize=1;strokeColor=none;fillColor=none;" vertex="1" parent="1">
          <mxGeometry x="332.5" y="-95" width="70" height="30" as="geometry" />
        </mxCell>
        <mxCell id="71QLxs91T1SFbu01BsWy-82" value="" style="rounded=1;whiteSpace=wrap;html=1;" vertex="1" parent="1">
          <mxGeometry x="411.25" y="-95" width="84.25" height="30" as="geometry" />
        </mxCell>
        <mxCell id="71QLxs91T1SFbu01BsWy-83" value="" style="rounded=1;whiteSpace=wrap;html=1;" vertex="1" parent="1">
          <mxGeometry x="411.25" y="-50" width="84.25" height="30" as="geometry" />
        </mxCell>
        <mxCell id="71QLxs91T1SFbu01BsWy-86" value="" style="rounded=1;whiteSpace=wrap;html=1;" vertex="1" parent="1">
          <mxGeometry x="312.5" y="85" width="117.5" height="30" as="geometry" />
        </mxCell>
        <mxCell id="71QLxs91T1SFbu01BsWy-87" value="ID orden de compra" style="text;html=1;align=center;verticalAlign=middle;resizable=0;points=[];autosize=1;strokeColor=none;fillColor=none;" vertex="1" parent="1">
          <mxGeometry x="172.5" y="85" width="130" height="30" as="geometry" />
        </mxCell>
        <mxCell id="71QLxs91T1SFbu01BsWy-88" value="" style="rounded=1;whiteSpace=wrap;html=1;" vertex="1" parent="1">
          <mxGeometry x="312.5" y="125" width="320" height="30" as="geometry" />
        </mxCell>
        <mxCell id="71QLxs91T1SFbu01BsWy-89" value="ID Remito" style="text;html=1;align=center;verticalAlign=middle;resizable=0;points=[];autosize=1;strokeColor=none;fillColor=none;" vertex="1" parent="1">
          <mxGeometry x="222.5" y="125" width="80" height="30" as="geometry" />
        </mxCell>
        <mxCell id="71QLxs91T1SFbu01BsWy-90" value="&lt;font style=&quot;font-size: 36px;&quot;&gt;+&lt;/font&gt;" style="rounded=1;whiteSpace=wrap;html=1;" vertex="1" parent="1">
          <mxGeometry x="418.38" y="40" width="70" height="30" as="geometry" />
        </mxCell>
        <mxCell id="71QLxs91T1SFbu01BsWy-98" value="Precio unitario" style="text;html=1;align=center;verticalAlign=middle;resizable=0;points=[];autosize=1;strokeColor=none;fillColor=none;" vertex="1" parent="1">
          <mxGeometry x="507.5" y="-50" width="100" height="30" as="geometry" />
        </mxCell>
        <mxCell id="71QLxs91T1SFbu01BsWy-99" value="Precio unitario" style="text;html=1;align=center;verticalAlign=middle;resizable=0;points=[];autosize=1;strokeColor=none;fillColor=none;" vertex="1" parent="1">
          <mxGeometry x="507.5" y="-10" width="100" height="30" as="geometry" />
        </mxCell>
        <mxCell id="71QLxs91T1SFbu01BsWy-100" value="" style="rounded=1;whiteSpace=wrap;html=1;" vertex="1" parent="1">
          <mxGeometry x="601.25" y="-10" width="84.25" height="30" as="geometry" />
        </mxCell>
        <mxCell id="71QLxs91T1SFbu01BsWy-101" value="Precio unitario" style="text;html=1;align=center;verticalAlign=middle;resizable=0;points=[];autosize=1;strokeColor=none;fillColor=none;" vertex="1" parent="1">
          <mxGeometry x="507.5" y="-95" width="100" height="30" as="geometry" />
        </mxCell>
        <mxCell id="71QLxs91T1SFbu01BsWy-102" value="" style="rounded=1;whiteSpace=wrap;html=1;" vertex="1" parent="1">
          <mxGeometry x="601.25" y="-95" width="84.25" height="30" as="geometry" />
        </mxCell>
        <mxCell id="71QLxs91T1SFbu01BsWy-103" value="" style="rounded=1;whiteSpace=wrap;html=1;" vertex="1" parent="1">
          <mxGeometry x="601.25" y="-50" width="84.25" height="30" as="geometry" />
        </mxCell>
        <mxCell id="71QLxs91T1SFbu01BsWy-104" value="" style="rounded=1;whiteSpace=wrap;html=1;" vertex="1" parent="1">
          <mxGeometry x="540" y="85" width="92.5" height="30" as="geometry" />
        </mxCell>
        <mxCell id="71QLxs91T1SFbu01BsWy-105" value="ID Factura" style="text;html=1;align=center;verticalAlign=middle;resizable=0;points=[];autosize=1;strokeColor=none;fillColor=none;" vertex="1" parent="1">
          <mxGeometry x="450" y="85" width="80" height="30" as="geometry" />
        </mxCell>
        <mxCell id="71QLxs91T1SFbu01BsWy-106" value="" style="rounded=0;whiteSpace=wrap;html=1;" vertex="1" parent="1">
          <mxGeometry x="750" y="-207.5" width="380" height="475" as="geometry" />
        </mxCell>
        <mxCell id="71QLxs91T1SFbu01BsWy-107" value="Generar orden de pago" style="text;html=1;strokeColor=none;fillColor=none;align=center;verticalAlign=middle;whiteSpace=wrap;rounded=0;fontStyle=4" vertex="1" parent="1">
          <mxGeometry x="862.3800000000001" y="-197.5" width="168.75" height="30" as="geometry" />
        </mxCell>
        <mxCell id="71QLxs91T1SFbu01BsWy-109" value="" style="rounded=1;whiteSpace=wrap;html=1;" vertex="1" parent="1">
          <mxGeometry x="853.19" y="-147.5" width="256.81" height="30" as="geometry" />
        </mxCell>
        <mxCell id="71QLxs91T1SFbu01BsWy-111" value="Proveedor" style="text;html=1;align=center;verticalAlign=middle;resizable=0;points=[];autosize=1;strokeColor=none;fillColor=none;" vertex="1" parent="1">
          <mxGeometry x="755.69" y="-147.5" width="80" height="30" as="geometry" />
        </mxCell>
        <mxCell id="71QLxs91T1SFbu01BsWy-119" value="Cargar" style="rounded=1;whiteSpace=wrap;html=1;" vertex="1" parent="1">
          <mxGeometry x="790.44" y="207.5" width="122.5" height="30" as="geometry" />
        </mxCell>
        <mxCell id="71QLxs91T1SFbu01BsWy-120" value="Cancelar" style="rounded=1;whiteSpace=wrap;html=1;" vertex="1" parent="1">
          <mxGeometry x="974.69" y="207.5" width="122.5" height="30" as="geometry" />
        </mxCell>
        <mxCell id="71QLxs91T1SFbu01BsWy-133" value="Precio total" style="text;html=1;align=center;verticalAlign=middle;resizable=0;points=[];autosize=1;strokeColor=none;fillColor=none;" vertex="1" parent="1">
          <mxGeometry x="517.5" y="35" width="80" height="30" as="geometry" />
        </mxCell>
        <mxCell id="71QLxs91T1SFbu01BsWy-134" value="" style="rounded=1;whiteSpace=wrap;html=1;" vertex="1" parent="1">
          <mxGeometry x="601.25" y="35" width="84.25" height="30" as="geometry" />
        </mxCell>
        <mxCell id="71QLxs91T1SFbu01BsWy-138" value="" style="rounded=1;whiteSpace=wrap;html=1;" vertex="1" parent="1">
          <mxGeometry x="853.19" y="-87.5" width="256.81" height="30" as="geometry" />
        </mxCell>
        <mxCell id="71QLxs91T1SFbu01BsWy-139" value="Monto" style="text;html=1;align=center;verticalAlign=middle;resizable=0;points=[];autosize=1;strokeColor=none;fillColor=none;" vertex="1" parent="1">
          <mxGeometry x="765.69" y="-87.5" width="60" height="30" as="geometry" />
        </mxCell>
        <mxCell id="71QLxs91T1SFbu01BsWy-141" value="Medio de pago" style="rounded=1;whiteSpace=wrap;html=1;" vertex="1" parent="1">
          <mxGeometry x="770" y="-17.5" width="340" height="30" as="geometry" />
        </mxCell>
        <mxCell id="71QLxs91T1SFbu01BsWy-143" value="" style="triangle;whiteSpace=wrap;html=1;rotation=90;" vertex="1" parent="1">
          <mxGeometry x="784.4000000000001" y="-10" width="12.32" height="15" as="geometry" />
        </mxCell>
        <mxCell id="71QLxs91T1SFbu01BsWy-144" value="" style="rounded=0;whiteSpace=wrap;html=1;" vertex="1" parent="1">
          <mxGeometry x="775.69" y="12.5" width="324.31" height="105" as="geometry" />
        </mxCell>
        <mxCell id="qK63a0NS9H5xBYTUuC_1-35" value="ID Factura" style="text;html=1;align=center;verticalAlign=middle;resizable=0;points=[];autosize=1;strokeColor=none;fillColor=none;" vertex="1" parent="1">
          <mxGeometry x="790.44" y="147.5" width="80" height="30" as="geometry" />
        </mxCell>
        <mxCell id="qK63a0NS9H5xBYTUuC_1-36" value="" style="rounded=1;whiteSpace=wrap;html=1;" vertex="1" parent="1">
          <mxGeometry x="886.06" y="147.5" width="213.94" height="30" as="geometry" />
        </mxCell>
        <mxCell id="qK63a0NS9H5xBYTUuC_1-37" value="Efectivo" style="rounded=1;whiteSpace=wrap;html=1;" vertex="1" parent="1">
          <mxGeometry x="775.69" y="12.5" width="324.31" height="30" as="geometry" />
        </mxCell>
        <mxCell id="qK63a0NS9H5xBYTUuC_1-38" value="Cheque" style="rounded=1;whiteSpace=wrap;html=1;" vertex="1" parent="1">
          <mxGeometry x="775.69" y="42.5" width="324.31" height="30" as="geometry" />
        </mxCell>
        <mxCell id="qK63a0NS9H5xBYTUuC_1-40" value="Visualizar facturas" style="text;html=1;strokeColor=none;fillColor=none;align=center;verticalAlign=middle;whiteSpace=wrap;rounded=0;fontStyle=4" vertex="1" parent="1">
          <mxGeometry x="1470.0000000000002" y="-155" width="168.75" height="30" as="geometry" />
        </mxCell>
        <mxCell id="qK63a0NS9H5xBYTUuC_1-42" value="ID Factura&lt;span style=&quot;white-space: pre;&quot;&gt;&#x9;&lt;span style=&quot;white-space: pre;&quot;&gt;&#x9;&lt;/span&gt;&lt;span style=&quot;white-space: pre;&quot;&gt;&#x9;&lt;/span&gt;&lt;/span&gt;ID Orden de compra&lt;span style=&quot;white-space: pre;&quot;&gt;&#x9;&lt;span style=&quot;white-space: pre;&quot;&gt;&#x9;&lt;/span&gt;&lt;/span&gt;&lt;span style=&quot;white-space: pre;&quot;&gt;&#x9;&lt;/span&gt;Fecha&lt;span style=&quot;white-space: pre;&quot;&gt;&#x9;&lt;span style=&quot;white-space: pre;&quot;&gt;&#x9;&lt;span style=&quot;white-space: pre;&quot;&gt;&#x9;&lt;/span&gt;&lt;/span&gt;&lt;/span&gt;Proveedor&lt;span style=&quot;white-space: pre;&quot;&gt;&#x9;&lt;span style=&quot;white-space: pre;&quot;&gt;&#x9;&lt;/span&gt;&lt;span style=&quot;white-space: pre;&quot;&gt;&#x9;&lt;/span&gt;&lt;/span&gt;Deuda&lt;span style=&quot;white-space: pre;&quot;&gt;&#x9;&lt;/span&gt;" style="rounded=1;whiteSpace=wrap;html=1;" vertex="1" parent="1">
          <mxGeometry x="1200" y="-56.25" width="680" height="42.5" as="geometry" />
        </mxCell>
        <mxCell id="qK63a0NS9H5xBYTUuC_1-43" value="&lt;span style=&quot;white-space: pre;&quot;&gt;&#x9;&lt;/span&gt;&amp;nbsp; &amp;nbsp; &amp;nbsp;IDF1&lt;span style=&quot;white-space: pre;&quot;&gt;&#x9;&lt;/span&gt;&lt;span style=&quot;white-space: pre;&quot;&gt;&#x9;&lt;/span&gt;&amp;nbsp; &amp;nbsp; &amp;nbsp; &lt;span style=&quot;white-space: pre;&quot;&gt;&#x9;&lt;/span&gt;&lt;span style=&quot;white-space: pre;&quot;&gt;&#x9;&lt;/span&gt;&lt;span style=&quot;white-space: pre;&quot;&gt;&#x9;&lt;/span&gt;IDOC1&amp;nbsp; &amp;nbsp;&lt;span style=&quot;white-space: pre;&quot;&gt;&#x9;&lt;/span&gt;&lt;span style=&quot;white-space: pre;&quot;&gt;&#x9;&lt;/span&gt;&amp;nbsp; &lt;span style=&quot;white-space: pre;&quot;&gt;&#x9;&lt;/span&gt;&lt;span style=&quot;white-space: pre;&quot;&gt;&#x9;&lt;/span&gt;&amp;nbsp; &amp;nbsp;&amp;nbsp;&amp;nbsp; Fecha1&lt;span style=&quot;white-space: pre;&quot;&gt;&#x9;&lt;/span&gt;&lt;span style=&quot;white-space: pre;&quot;&gt;&#x9;&lt;/span&gt;&lt;span style=&quot;white-space: pre;&quot;&gt;&#x9;&lt;/span&gt;Proveedor1&lt;span style=&quot;white-space: pre;&quot;&gt;&#x9;&lt;/span&gt;&lt;span style=&quot;white-space: pre;&quot;&gt;&#x9;&lt;span style=&quot;white-space: pre;&quot;&gt;&#x9;&lt;/span&gt; &lt;/span&gt;&amp;nbsp; &amp;nbsp;$$" style="rounded=1;whiteSpace=wrap;html=1;align=left;" vertex="1" parent="1">
          <mxGeometry x="1200" y="-13.75" width="680" height="30" as="geometry" />
        </mxCell>
        <mxCell id="grvaWUuhBAjZ1NQo9VF9-4" value="&lt;span style=&quot;white-space: pre;&quot;&gt;&#x9;&lt;/span&gt;&amp;nbsp; &amp;nbsp; &amp;nbsp;IDF2&lt;span style=&quot;white-space: pre;&quot;&gt;&#x9;&lt;/span&gt;&lt;span style=&quot;white-space: pre;&quot;&gt;&#x9;&lt;/span&gt;&amp;nbsp; &amp;nbsp; &amp;nbsp; &lt;span style=&quot;white-space: pre;&quot;&gt;&#x9;&lt;/span&gt;&lt;span style=&quot;white-space: pre;&quot;&gt;&#x9;&lt;/span&gt;&lt;span style=&quot;white-space: pre;&quot;&gt;&#x9;&lt;/span&gt;IDOC2&amp;nbsp; &amp;nbsp;&lt;span style=&quot;white-space: pre;&quot;&gt;&#x9;&lt;/span&gt;&lt;span style=&quot;white-space: pre;&quot;&gt;&#x9;&lt;/span&gt;&amp;nbsp; &lt;span style=&quot;white-space: pre;&quot;&gt;&#x9;&lt;/span&gt;&lt;span style=&quot;white-space: pre;&quot;&gt;&#x9;&lt;/span&gt;&amp;nbsp; &amp;nbsp;&amp;nbsp;&amp;nbsp; Fecha2&lt;span style=&quot;white-space: pre;&quot;&gt;&#x9;&lt;/span&gt;&lt;span style=&quot;white-space: pre;&quot;&gt;&#x9;&lt;/span&gt;&lt;span style=&quot;white-space: pre;&quot;&gt;&#x9;&lt;/span&gt;Proveedor2&lt;span style=&quot;white-space: pre;&quot;&gt;&#x9;&lt;/span&gt;&lt;span style=&quot;white-space: pre;&quot;&gt;&#x9;&lt;span style=&quot;white-space: pre;&quot;&gt;&#x9;&lt;/span&gt; &lt;/span&gt;&amp;nbsp; &amp;nbsp;$$" style="rounded=1;whiteSpace=wrap;html=1;align=left;" vertex="1" parent="1">
          <mxGeometry x="1200" y="20" width="680" height="30" as="geometry" />
        </mxCell>
        <mxCell id="grvaWUuhBAjZ1NQo9VF9-5" value="&lt;span style=&quot;white-space: pre;&quot;&gt;&#x9;&lt;/span&gt;&amp;nbsp; &amp;nbsp; &amp;nbsp;IDF3&lt;span style=&quot;white-space: pre;&quot;&gt;&#x9;&lt;/span&gt;&lt;span style=&quot;white-space: pre;&quot;&gt;&#x9;&lt;/span&gt;&amp;nbsp; &amp;nbsp; &amp;nbsp; &lt;span style=&quot;white-space: pre;&quot;&gt;&#x9;&lt;/span&gt;&lt;span style=&quot;white-space: pre;&quot;&gt;&#x9;&lt;/span&gt;&lt;span style=&quot;white-space: pre;&quot;&gt;&#x9;&lt;/span&gt;IDOC3&amp;nbsp; &amp;nbsp;&lt;span style=&quot;white-space: pre;&quot;&gt;&#x9;&lt;/span&gt;&lt;span style=&quot;white-space: pre;&quot;&gt;&#x9;&lt;/span&gt;&amp;nbsp; &lt;span style=&quot;white-space: pre;&quot;&gt;&#x9;&lt;/span&gt;&lt;span style=&quot;white-space: pre;&quot;&gt;&#x9;&lt;/span&gt;&amp;nbsp; &amp;nbsp;&amp;nbsp;&amp;nbsp; Fecha3&lt;span style=&quot;white-space: pre;&quot;&gt;&#x9;&lt;/span&gt;&lt;span style=&quot;white-space: pre;&quot;&gt;&#x9;&lt;/span&gt;&lt;span style=&quot;white-space: pre;&quot;&gt;&#x9;&lt;/span&gt;Proveedor3&lt;span style=&quot;white-space: pre;&quot;&gt;&#x9;&lt;/span&gt;&lt;span style=&quot;white-space: pre;&quot;&gt;&#x9;&lt;span style=&quot;white-space: pre;&quot;&gt;&#x9;&lt;/span&gt; &lt;/span&gt;&amp;nbsp; &amp;nbsp;$$" style="rounded=1;whiteSpace=wrap;html=1;align=left;" vertex="1" parent="1">
          <mxGeometry x="1200" y="50" width="680" height="30" as="geometry" />
        </mxCell>
        <mxCell id="grvaWUuhBAjZ1NQo9VF9-6" value="&lt;span style=&quot;white-space: pre;&quot;&gt;&#x9;&lt;/span&gt;&amp;nbsp; &amp;nbsp; &amp;nbsp;IDF4&lt;span style=&quot;white-space: pre;&quot;&gt;&#x9;&lt;/span&gt;&lt;span style=&quot;white-space: pre;&quot;&gt;&#x9;&lt;/span&gt;&amp;nbsp; &amp;nbsp; &amp;nbsp; &lt;span style=&quot;white-space: pre;&quot;&gt;&#x9;&lt;/span&gt;&lt;span style=&quot;white-space: pre;&quot;&gt;&#x9;&lt;/span&gt;&lt;span style=&quot;white-space: pre;&quot;&gt;&#x9;&lt;/span&gt;IDOC4&amp;nbsp;&amp;nbsp;&lt;span style=&quot;white-space: pre;&quot;&gt;&#x9;&lt;/span&gt;&lt;span style=&quot;white-space: pre;&quot;&gt;&#x9;&lt;/span&gt;&amp;nbsp; &lt;span style=&quot;white-space: pre;&quot;&gt;&#x9;&lt;/span&gt;&lt;span style=&quot;white-space: pre;&quot;&gt;&#x9;&lt;/span&gt;&amp;nbsp; &amp;nbsp;&amp;nbsp;&amp;nbsp; Fecha4&lt;span style=&quot;white-space: pre;&quot;&gt;&#x9;&lt;/span&gt;&lt;span style=&quot;white-space: pre;&quot;&gt;&#x9;&lt;/span&gt;&lt;span style=&quot;white-space: pre;&quot;&gt;&#x9;&lt;/span&gt;Proveedor4&lt;span style=&quot;white-space: pre;&quot;&gt;&#x9;&lt;/span&gt;&lt;span style=&quot;white-space: pre;&quot;&gt;&#x9;&lt;span style=&quot;white-space: pre;&quot;&gt;&#x9;&lt;/span&gt; &lt;/span&gt;&amp;nbsp; &amp;nbsp;$$" style="rounded=1;whiteSpace=wrap;html=1;align=left;" vertex="1" parent="1">
          <mxGeometry x="1200" y="80" width="680" height="30" as="geometry" />
        </mxCell>
        <mxCell id="grvaWUuhBAjZ1NQo9VF9-7" value="" style="ellipse;whiteSpace=wrap;html=1;" vertex="1" parent="1">
          <mxGeometry x="1540" y="117.5" width="10" height="12.5" as="geometry" />
        </mxCell>
        <mxCell id="grvaWUuhBAjZ1NQo9VF9-11" value="" style="ellipse;whiteSpace=wrap;html=1;" vertex="1" parent="1">
          <mxGeometry x="1540" y="135" width="10" height="12.5" as="geometry" />
        </mxCell>
        <mxCell id="grvaWUuhBAjZ1NQo9VF9-12" value="" style="ellipse;whiteSpace=wrap;html=1;" vertex="1" parent="1">
          <mxGeometry x="1540" y="152.5" width="10" height="12.5" as="geometry" />
        </mxCell>
        <mxCell id="grvaWUuhBAjZ1NQo9VF9-13" value="Filtrar" style="text;html=1;align=center;verticalAlign=middle;resizable=0;points=[];autosize=1;strokeColor=none;fillColor=none;" vertex="1" parent="1">
          <mxGeometry x="1200" y="-105" width="50" height="30" as="geometry" />
        </mxCell>
      </root>
    </mxGraphModel>
  </diagram>
  <diagram name="Diseño Arquitéctonico" id="LH0G1uMBLQPF8m2IZfxO">
    <mxGraphModel grid="1" page="1" gridSize="10" guides="1" tooltips="1" connect="1" arrows="1" fold="1" pageScale="1" pageWidth="827" pageHeight="1169" math="0" shadow="0">
      <root>
        <mxCell id="0" />
        <mxCell id="1" parent="0" />
        <mxCell id="07Std1C0W4EiO_UUoKn6-12" value="Petición" style="edgeStyle=orthogonalEdgeStyle;rounded=0;orthogonalLoop=1;jettySize=auto;html=1;curved=1;fontStyle=1" edge="1" parent="1" source="07Std1C0W4EiO_UUoKn6-4" target="07Std1C0W4EiO_UUoKn6-6">
          <mxGeometry relative="1" as="geometry">
            <mxPoint x="370" y="490" as="targetPoint" />
            <mxPoint as="offset" />
          </mxGeometry>
        </mxCell>
        <mxCell id="07Std1C0W4EiO_UUoKn6-4" value="" style="shape=image;verticalLabelPosition=bottom;labelBackgroundColor=default;verticalAlign=top;aspect=fixed;imageAspect=0;image=data:image/png,iVBORw0KGgoAAAANSUhEUgAAAgAAAAIACAYAAAD0eNT6AAAABmJLR0QA/wD/AP+gvaeTAAAgAElEQVR4nO3debBeVZnv8W/IQEIgBEIYAkFkniGOIKAgorY2iq1esbRtB7T1estW2+rBVq+lVtvadjv0ve21LWe916G9CigOoCKKDKJMIpFAmCEiSciE4WS6f6yTCxnOyTnn3Xs/e631/VStOlR1Wf3Lft/9Ps9ea+29QZIkSZIkSZIkSZIkSZIkSZIkSZIkSZIkSZIkSZIkSZIkSZIkSZIkSZIkSZIkSZIkSZIkSZIkSZIkSZIkSZIkSZIkSZIkSZIkSZIkSZIkSZIkSZIkSZIkSZIkSZIkSZIkSZIkSZIkSZIkSZIkSZIkSZIkSZIkSZIkSZIkSZLUL5OiA0hqxS7AHGDP4TFneMwe/r9PBXbdzv9uDTA0/N8rgWXAg8DS4f9eBqxuLbWkztgASHmaARwFHAkcChwA7A8cOPx3jxb/f68E7gHuBu4d/ns7cBOwEBsEKQs2AFL/7Qc8dXgcRyr8BwE7BWYazZ2kRuBG4GrgSlKTIKlHbACk/jkOOBM4GTiJdFWfu/uAq4ArgB8B1wEbQxNJlbMBkOLNBc4Cnj38d15snE78Abh4ePyQ1CBIklS8w4D3ktbNNzm4afh4HDnxQypJUj/NAd4M/BTYQHzR7ePYSFomeDuw78QOsyRJ8aYBLyVNdVv0xzc2AD8H3gDMHO+BlyQpwjzgA6Tb5aILaQnjAeBfgIPH8yFIktSVZwEX4tV+W2MjaTblbNzELEnqgecDPyG+QNY0rgJeQn+fhyBJKtQk0vr+jcQXw5rHYtI+gcmjf1ySJA3upcD1xBc/x6PjJuBVOCMgSWrBUcBFxBc7x8jjMuCJI32AkiSNx37AF3FzX07jQrxrQJI0QZOBtwHLiS9ojvGP1cC7gZ23/mAlSRrJk3GDXynjNuCZSJI0ipnAx4F1xBcuR3NjI/ApYBaSJG1lAe7uL33cCpyGJEmktf734lV/LWMjaZbHvQGSVLFDSG+giy5Kju7HjcBxSJKq8wLgD8QXIkfcWAG8AklSFaaRNoRFFx9Hf8aXgF2QJBVrHuk989EFx9G/cS1pSUiSVJgzSe+Wjy40jv6OFcCLkCQV41xgLfEFxtH/sR54E5KkrE0C/on4ouLIb3wcXzMsSVmaCnye+ELiyHd8CzcHSlJWZgDnE19AHPmPS4HZSAWZFB1Aasks4CLglOggKsbNpE2k90cHkZpgA6ASzQF+ADwxOoiK8ztSE3BvdBBpUDYAKs1c4IfAidFBVKw7SE3A4uAc0kBsAFSSOcDFpDf6SW26ldQE3BUdRJooGwCVYi/gx/hiF3XnbuAZwO3RQaSJ2Ck6gNSAOcAlWPzVrfmkGaf9o4NIE+EMgHK3B/AjnPZXnEWkmQDvDlBWnAFQzmaQHtJi8Vekw4DvArtHB5HGwwZAuZoMfIN05SVFWwBcCEyPDiKNlQ2AcvU/gedHh5Ae4zTgC/i7qkz4kgvl6K3AP0SHkLbjGNL7J34cHUTaERsA5eZ5wGfxKkv9dSrpIUE3RAeRRuNdAMrJscAVwK7RQaQdWEd6UNDPooNII7EBUC5mA1eTdlxLOVgCPAnfG6CechpVOZgMfA2Lv/KyL/CfwM7RQaTtcQ+AcvBe4LXRIaQJOID0pMrvRgeRtuYSgPrudNKT/pytUs5eAnwzOoT0WDYA6rN9SDup944OIg1oBekV1XcE55D+P6+q1GefwuKvMuwOfBmXXdUjfhnVV38JvCM6hNSgA4H1wGXRQSRwCUD9dDBwPd7vr/IMAScB10YHkVwCUN9MAj6HxV9lmkZ6X8C06CCSSwDqmzcCb44OIbVoH9KTAl0KUCiXANQn84HfALOig0gtGwKeANwUHUT1cglAffIxLP6qwzTSK629CFMYlwDUFy8A3hcdQurQQcBduCFQQew+1Qc7k6ZCD4kOInXsAeBw0oOCpE45A6A+eBvwsugQUoCZpAuxS6KDqD7OACjavsAtwG7RQaQgQ8CxwKLoIKqLmwAV7R+w+Ktu04D3R4dQfZwBUKRDgJuBqdFBpB54KnB1dAjVwxkARXoXFn9ps/dEB1BdnAFQlCNJD/1xI6r0qJOBK6NDqA7OACjKu7H4S1vzWRjqjDMAinAwaee/DYC0rScD10SHUPmcAVCEt2Pxl0byN9EBVAdnANS1OaTHn+4SHUTqqQ2kpwMujg6isjkDoK69Hou/NJrJwH+LDqHyOQOgLk0DbgfmRQeRem4V6fXYviNArXEGQF16HhZ/aSx2A86NDqGy2QCoS+dFB5Ay4vmiVrkEoK7MJ03/u/tfGrsTgeujQ6hMzgCoK6/E4i+N16ujA6hczgCoKzeTHv8raex+T5o9WxcdROVxBkBdeDIWf2ki9gGeHR1CZbIBUBdeHB1Aypjnj1rhEoC6cBvp+f+Sxm8psB8uA6hhzgCobSdg8ZcGMQc4PTqEymMDoLa9KDqAVADPIzXOJQC17dfAgugQUubuBQ6IDqGy2ACoTXsDS/B7JjXhaNLttFIjXAJQm56JxV9qylnRAVQWGwC1yR8sqTnPig6gsnh1pjbdjeuWUlNWke4I8HZANcIZALXlcVj8pSbtRno5kNQIGwC15WnRAaQCnRwdQOWwAVBbnhodQCqQ55UaYwOgtvhDJTXvpOgAKoebANWGnYEVw38lNWtf0muCpYE4A6A2HI3FX2qLT9ZUI2wA1IbjogNIBfP8UiNsANSGY6IDSAU7OjqAymADoDbYAEjtsQFQI2wA1AYbAKk9R+MGbjXABkBNmwEcGB1CKtiuwP7RIZQ/GwA17UD8Xklte3x0AOXPH2o1zat/qX2eZxqYDYCaNj86gFQBzzMNzAZATfOHSWqf55kGZgOgpvnDJLXPJQANzAZATdsnOoBUAc8zDcwGQE3bMzqAVAHPMw3MBkBN2yM6gFQBzzMNzAZATfPKRGrfbPz91oD8AqlpXplI7dsJmBUdQnmzAVCTZgDTokNIlZgdHUB5swFQk6ZHB5Aq4vmmgdgAqElTowNIFXG2TQOxAVCT/EGSuuP5poHYAKhJzgBI3bEB0EBsANQkf5Ck7ni+aSA2AGrSpOgAUkU83zQQGwA1aV10AKkiQ9EBlDcbADXJHySpOzbcGogNgJrkD5LUHRtuDcQGQE3yB0nqjuebBmIDoCY5AyB1xwZAA7EBUJNWAxuiQ0iVWBEdQHmzAVCTNgEPRYeQKrAJWB4dQnmzAVDT/FGS2rcaWB8dQnmzAVDTlkUHkCrgeaaB2QCoac4ASO3zPNPAbADUtKXRAaQKeJ5pYDYAatpd0QGkCtwZHUD5swFQ0+6ODiBVwPNMA7MBUNOcAZDaZwOggdkAqGn+MEnts9HWwGwA1LR7ogNIFbDR1sAmRQdQkR4A5kaHkAo1BOyK797QgJwBUBtuig4gFexWLP5qgA2A2mADILXH80uNsAFQG/yBktrz2+gAKoMNgNpgAyC1xwZAjbABUBtuJL2uVFLzrosOoDLYAKgNy4GF0SGkAj0ILIoOoTLYAKgtV0YHkAp0Fc6uqSE2AGrLVdEBpAJ5XqkxNgBqiz9UUvOcWVNjfBKg2jIFWAbsFh1EKsR6YC9gRXQQlcEZALVlPfCj6BBSQa7C4q8G2QCoTRdHB5AKckl0AJXFBkBtsgGQmuP5pEa5B0BtWww8PjqElLkVpPX/9dFBVA5nANQ29wFIg/spFn81zAZAbftGdACpAJ5HapxLAGrbVGAJsGd0EClTjwD74B0AapgzAGrbOuD86BBSxi7B4q8W2ACoC9+MDiBlzPNHrXAJQF2YDtwPzI4OImVmCJgHLI0OovI4A6AurAW+FB1CytC3sfirJTYA6srnogNIGfK8UWtcAlCXrgVOjA4hZeIu0kO0NkYHUZmcAVCXvJqRxu5LWPzVImcA1KW9SFc1M6KDSD23ETgCuDU6iMrlDIC69CDw+egQUga+hcVfLXMGQF07DFiIzac0mlOBy6NDqGz+CKtri4CLokNIPXYlFn91wAZAET4aHUDqsY9FB1AdXAJQhEnAL4EnRgeReuY24CjSOzSkVjkDoAibgL+PDiH10Huw+KsjzgAo0qXAM6JDSD1xA7AA7/1XR5wBUKR3RQeQeuQDWPzVIWcAFO1SnAWQfgOcgA2AOuQMgKL9FbAhOoQU7C1Y/NUxGwBFux7fEaC6fRv4SXQI1cclAPXB3sAtwO7RQaSOPQIcDSyODqL6TI4OIAFrSMsAZ0UHkTr2r8A3okOoTs4AqC+mAzcCh0YHkTqyhPTQn4eig6hO7gFQX6wF/hw3Qqke52HxVyCXANQn95D2AzwlOojUsq8D/xgdQnVzCUB9M5O0FPD46CBSS/5A2vj3YHQQ1c0lAPXNGuCt0SGkFr0Ti796wCUA9dHvgH2BJ0UHkRr2NVIDIIVzCUB9tQtwDWmXtFSCu0iP+3Xjn3rBJQD11cPAK4Ch6CBSAzaQ7nKx+Ks3XAJQny0hPSnNBwQpdx8BPhMdQnoslwDUd5OB7wPPig4iTdA1wKmkZlbqDRsA5WAP4Gp8SqDycy9pM+uS6CDS1twDoBwsB84GVkYHkcZhCHgpFn/1lA2AcrEQeDWwKTiHNFZvB66IDiGNxE2AyslC0iuDT44OIu3Al4G/jw4hjcYGQLn5IWkvwPHRQaQRXAy8DF9spZ5zE6ByNB24BDglOoi0lRuA03C/ijJgA6BczQF+ARweHUQadg9wEmnnv9R7bgJUrpYC5wDLooNIpCdXvgSLvzJiA6Cc3QycgU2AYq0hPa3yqugg0njYACh3NwDPA1ZFB1GV1pJmon4RHUQaLxsAleAq4LnA6uggqso64FzShlRJUqCzSc9b3+RwtDw2AK9BktQbzyDdghVdIBzljrXAC5Ek9c6TSXcJRBcKR3njYeBPkArgcwBUqgXAD4C50UFUjJWkZabLooNIkkZ3IulNbNFXjY78x3LSE/4kSZmYB1xLfAFx5DtuAQ5BkpSdXYHvEV9IHPmNy0mPnZYkZWoa8EXiC4ojn3EBMBOpUL4OWLXYAJwPTAVOxQ2wGt0nSff5r40OIklqzhnA74m/wnT0bzyE9/hLUtHmA1cSX3Ac/Rk34uulJakKM3FfgCONbwOzkSRV5c9IrxSOLkKO7sdq4FVIkqp1IPBz4guSo7txHXAkUqXcCa2mTCVNoW49HmstaZ31jk6Tjd3OwD8Bf4XnRuk+B7yF/r5Cen/gBLa9DXEFaaPiY8dQt9FUCn/kNB6PA44CjiVdOc0DDgD2Hh5j/T5dDXyItO66sfmYAzsN+A+8OizRncB/BS6KDjKC5wB/S7pTZaz+QLqr5b7hsRC4Cfgtqdnu4zkmqccOAl4G/DPwE9KVR9NTsL8Fzuno3zNeOwPvI11dRU9VOwYf64GPkZ4K2UdnAtfQ/L97NfAz4KPAK4DDuvoHScrHXODlwKeBxXT74/xz4OT2/4kTcizpcbDRBcwx8XEd8NStP9ieOAH4Pt0ej7uBL5A2P85r/58oqY+OAf4O+AXpSXnRP9RfoJ/PXZ8EnEuaTo0+Ro6xjyXA6+nnE093Az5B/Hm3kTTz8N+BJ+CysFS0w0gb3e4i/gd6e2M5aRPeTm0dgAFMBd5AWnONPk6OkcdK0jr6jO1/jOFeRX9fU30P8HFgQWv/ekmd2on0eNMfEn/FMdbxPdI+hD7aD/gfwCPEHyfHo2M98Hn6+73ZB/gq8cdpLGMjaWnu5aTGV1JmZgFvA24j/gdlImM18Fb6OYUL6dkBn8aNgtFjA/AV4IjRP64wk4BXA0uJP1YTGfcA7wT2avi4SGrBPsA/ku4Rjv7xaGJcBRzX6BFq1iGkK09nBLod64Gvkfay9NXBwMXEH6smxmrSnRQHNnqEJDViP+DfgIeJ/7FoegwB7yfdntdX84APku+VXi5jJakQHTy2jyXEZOCvgTXEH6+mxxDpQUoHNXWwJE3cbNIV/2rifxzaHjcDpzZz2Fozk/SwmYXEH6+Sxh3AO4Ddx/xJxDgB+CXxx6vt8Qhpw+DezRw2SeMxhfQ409quODcA/07a49Bnk0jNymeBVcQftxzHH4H/DZxFP+8MeazppEa8tj0hK0l7BKYPfggljcWzSY/7jD75I8fdwNmDHsiO7Aq8BriUfO7EiBobgSuAN5HPK3qfDvyO+GMXORYDLx70QEoa2TzgO8Sf7H0a3yGvjUl7kO4FvxA3Dm4e64aPx6vo58OgRjIX+Drxx69P4zLg0EEOqqRtvYD0so/oE7yPYynpVqvcnmS2H/BG4Fu0876FPo/VwHdJy1g5NXCbnQPcS/xx7ONYBrxy4odW0ma7kN5OF31S5zAupt+7w0czhbRn4H2k9w+sJf54NjmGSG+C/CDpbXfTmjlsndsX+AbxxzOH8TXyWcaReud4XOsf71hDugWrrw8QGqtppJfYvIX0oJtbSevj0cd3rOMO0vT424FT6O+jecdqEvA60tVt9LHNadwOPG0Cx1sty226tDavID1pLvcfzijXAOcB10cHadBM4Ejg6OFxJGm99QBirrRWkTZj3k5qVBc+5u/KgDxtORT4FPDM6CCZWk9qyj8RHUSPsgHop8mkF/a8IzpIAdYBHyFNq68NztK2maS19P2Hxxxgz+ExZ3hsbhKmku5M2Noa0lQ9pAK+DHiQtMdi2fC4j/R42Lspq8hvzxTSDMZ7sRFvwmdJz8h4JDqI1EczSLuho6ftShu/I92qJY3VAuBXxH93Sxs/w30B0jZmAT8l/gQtdWwkbabcc6wfiKo0E/gwafYo+jtb6riW9M4SSaTp2WuIPzFrGA+QHsrjEpi29mLgLuK/ozWMW4D5Y/tYpHLNxqnGiHE58OQxfD4q3zHAD4j/TtY2FpEebiZVaU/gOuJPxJrHhaRX+qo+B5JuVczp9srSxiLSplWpKjNJG2KiT0BH2v3+L6Qn86l8c0h3hjxE/HfPATcAe436iUkF2Q34BfEnnmPLMQR8EThi5I9OGZtPup+/tKcsljBsAlSFqbje2PfxCOkhTLk+Vlhb2h/4GGmmJ/q75Rh5XMX2n08hFeNTxJ9ojrGNdaQZgWO3+0mq7w4FPolX/DmN/wvstL0PU8rdO4g/wRwTG9cAbyDt3VB/zSB9Tt5Wm+/48DafqpS5PwU2EH9yOQYbK0izOMejPjkE+DiwnPjviGPwcR5SIY4lPTc9+qRyNDs2zwr4nPgYU4CXkl4DbXNd1ngEH9/dKp+E1o3ZwBWkN7epTPeT3hH/VeBK0g+Y2rMAeDnwMtK9/CrTvcBTSC+gUsNsALrxLeCc6BDqzB2kRuCrlPUq4mhHAOeSCr+3adbjcuAZpBkeKStvJn4qzRE37iStS5+KJuII0quxFxP/WTrixvtQ45wBaNfhwK9x17iSa4FvAxeQHv+s7TsSeOHwOAl/p5Ruxz0F+GV0kJJ4YrVnKr5sRiO7g9QIXET6nqwOTRNrBnAy8FxS0T88No56ahFp78ea6CClsAFoz/uBd0WHUBbWA1cDlw6PKyi7IZhB2th1BnA66Sp/58hAysanSXfdqAE2AO04lfRDPjk4h/K0AbiR9K6IK0h3FdxGWgvN0eNIV/gnk4r9AtIMmTQR5wDnR4cogQ1A82aQfrx9vayatJL0vbqBdGfBjaQp0T9EhtrKnqRH7x5HekjS8cAJwB6RoVScB4CjgGXRQXJnA9A8p/7VpZXAraQZgjtI90svId0//QDwe9Irbwc1C9gb2Jf0yuTN4yBSs3soFnp1x6WABtgANOsI0tWZ65nqk42kq6Xlw39XjeF/M5N0Rb95uJylPtlIWmq9IjpIzmwAmjMJuAzv95akLtxE2k+yLjpIruzqm/MXwFuiQ0hSJfYm3S1zeXSQXDkD0Iy9gIXAnOggklSRh0kvWrs9OkiOdooOUIj3YPGXpK7tAnw4OkSunAEY3DGkjX8up0hSjDOBH0eHyI0zAIP7ABZ/SYr0QbygHTcbgMGciq/5laRoTwFeFB0iN3ZMEzeJdA/qU6ODSJK4hbQkuz46SC6cAZi4F2Dxl6S+OBx4TXSInDgDMDFTgN+QnvwnSeqH+4DDSLcHagecAZiYc7H4S1LfzAPeGB0iF84AjN9OwM2k6SZJUr88QHpJ1R+Dc/SeMwDj92dY/CWpr/YGXhsdIgfOAIzPJODXwInRQSRJI7qddKHmHQGjcAZgfJ6FxV+S+u7xpL1aGoUzAOPzY+CM6BCSpB26mfSioI3RQfrKGYCxOxmLvyTl4ijg+dEh+swGYOzeGh1AkjQufx0doM9cAhibA0ibSqZEB5EkjcsTSZu3tRVnAMbm9Vj8JSlHb4gO0FfOAOzYVOBOYL/oIJKkcVsN7A+sjA7SN84A7NgLsfhLUq52BV4ZHaKPbAB27E3RASRJA3kzznhvwwMyuiNI95J6nCQpb6cBP48O0SfOAIzudVj8JakE50UH6BuL28gmA3fj+r8klWANsM/wX+EMwGiejsVfkkoxE/jT6BB9YgMwspdHB5AkNcrf9cdwCWD7pgFLgD2ig0iSGjNEmtldFh2kD5wB2L6zsPhLUmmmAS+KDtEXNgDb5zSRJJXJ3/dhLgFsazrwe2BWdBBJUuPWkx4N/EB0kGjOAGzrWVj8JalUU4Czo0P0gQ3AtvxiSFLZ/J3HJYCtTQLuxfv/JalkDwNzh/9WyxmALT0Bi78klW4X4PToENFsALbktJAk1aH633uXALb0K9IsgCSpbPcBBwCbooNEcQbgUfOABdEhJEmdmAccFx0ikg3Ao56DMyKSVJPnRQeIZAPwqDOjA0iSOlX1775XvMkk4H7Su6IlSXVYC+wJ/DE6SARnAJKjsPhLUm2mAydFh4hiA5BUPQ0kSRWr9vffBiCp9gsgSZWr9vffPQAwGVgK7B4dRJLUufXAXsCK6CBdcwYATsTiL0m1mgKcEh0igg0APD06gCQp1GnRASLYAMDTogNIkkJVWQfcA5Be/zsvOoQkKcwfgdnAUHSQLtU+A3AQFn9Jqt0MKnwXTO0NQJUbPyRJ26huGaD2BqC6D1yStF3V1QMbAEmSKqwHNW8C3IX04Icp0UEkSb0wH7gnOkRXap4BOBGLvyTpUU+KDtClmhuA6nZ8SpJGVVVdsAGQJCl5QnSALtkASJKUVFUXat0EOA1YNfxXkqTN9gOWRIfoQq0zAMdg8ZckbevE6ABdqbUBqGqaR5I0ZtXsA6i1ATghOoAkqZeqqQ+1NgDHRweQJPXScdEBulLrJsAHgLnRISRJvbMe2BV4JDpI22qcAZiLxV+StH1TgMOiQ3ShxgbgmOgAkqReq6JO2ABIkrSlKuqEDYAkSVs6OjpAF2wAJEnaUhV1osa7ALwDQJI0mnWkOwGGooO0qbYZgDlY/CVJo5sKHBIdom21NQCHRgeQJGWh+HphAyBJ0raKfxZAbQ1A8R+oJKkRxV8w1tYAFL+mI0lqhA1AYZwBkCSNRfENQG23AT5IuhNAkqTRbABmUvBLgWqaAZiNxV+SNDaTgcdFh2hTTQ3AQdEBJElZeXx0gDbV1ADMjw4gScpK0XWjpgbgwOgAkqSs2AAUougPUpLUuKIvHG0AJEnavqLrRk0NQNGdnCSpcUXXjZoagKI7OUlS4+ZT8PNyiv2HbWUS6WEOU6ODSJKyshewNDpEG2qZAdgDi78kafz2iQ7QlloagL2jA0iSsjQ3OkBbamkAiv0AJUmtKvYCspYGoNgPUJLUqmIvIGtpAIr9ACVJrSr2ArKWBqDYD1CS1KpiLyBraQD2ig4gScqSDUDmZkcHkCRlqdj6UUsDsFt0AElSloqtHzYAkiSNrNj6UUsDMCs6gCQpSzYAmSv2A5QktarY+mEDIEnSyIqtHzYAkiSNbAowIzpEG2poACYBu0aHkCRlq8iLyBoagJnU8e+UJLXDBiBTRX5wkqTOFFlHbAAkSRpdkXWkhgbAZwBIkgZhA5CpIj84SVJniqwjNgCSJI2uyDpSQwMwMzqAJClrRdaRGhqAqdEBJElZK7KO2ABIkjS6IutIDQ3AlOgAkqSsFVlHbAAkSRpdkXXEBkCSpNEVWUdsACRJGp17ADJV5AcnSepMkReSNTQARX5wkqTOFFlHbAAkSRpdkTPJNTQAk6MDSJKyVuSFZA0NQJGdmySpMzYAmSryg5MkdabIC0kbAEmSRldkHbEBkCRpdEXWkRoaADcBSpIGUWQdqaEBWBcdQJKUtSLrSA0NwProAJKkrNkAZKrID06S1Jki64gNgCRJoxuKDtCGGhqAldEBJElZK7KO1NAArIgOIEnKWpF1pIYG4KHoAJKkrBVZR2poAIrs3CRJnSmyjtTQANwfHUCSlLUi60gNDcB90QEkSVkrso5Mig7QgUnAH4Gdo4NIkrK0BwXuA6hhBmATsCQ6hCQpSw9TYPGHOhoAgFujA0iSsnRbdIC21NIALIoOIEnK0i3RAdpiAyBJ0siKrR+1NADFdnCSpFbZAGTu2ugAkqQs/To6QFtquA1wsyXAPtEhJEnZWAvMotC3ytYyAwDOAkiSxuc3FFr8oa4G4FfRASRJWbkmOkCbamoAfhodQJKUlcuiA7Sppj0AM4HlwNToIJKkLBwA3Bsdoi01zQCsoeDdnJKkRt1BwcUf6moAAH4cHUCSlIUfRQdoW20NwAXRASRJWTg/OkDbatoDAKnhuRfYNzqIJKm3Hgb2Ir1Kvli1zQBsBL4fHUKS1Gs/ofDiD/U1AABfjg4gSeq1r0QH6EJtSwCQmp47gPnBOSRJ/bOKtEz8cHSQttU4A7AR+Hp0CElSL11ABcUf6pwBADgU+B11NkCSpJE9HfhZdIgu1FoAb6WCezwlSeNyA5UUf6i3AQD4ZHQASVKv/Ht0gC7VugQA6Z0AtwIHRgeRJIV7iFQPVkUH6UrNMwDrgA9Fh5Ak9cLHqaj4Q90zAAA7A7cD+0UHkSSFWQUcBCwLztGpmmcAAB4B/i06hCQp1GeorPiDMwAA04GFwOOig0iSOrcUOAxYHh2ka7XPAHEI5Z8AAAPZSURBVACsBd4ZHUKSFOIDVFj8wRmAzXYCfgk8ITqIJKkzi4GjScvB1XEGINkIvIZ0Z4AkqXybgNdRafEHmBwdoEd+D+wOPC06iCSpdV8BPhodIpJLAFuaBfwG3xQoSSVbDhwD3B8dJJJLAFtaCbwc2BAdRJLUmtdQefEHlwC2525gGumNUJKksvwH8JHoEH3gEsD2TQMuB54UHUSS1JhbSL/rVT3ydyQ2ACPbF7gG2D86iCRpYA8BTwEWRQfpC/cAjGwJ8BIqvkVEkgqxAfgvWPy34B6A0d1DagReEB1EkjRh7wa+EB2ib2wAduzXpAcEnRkdRJI0bh8D3hUdoo9sAMbm58CBwILoIJKkMbuA9LS/TdFB+sgGYOwuJL0v+sTgHJKkHTuftO6/PjpIX9kAjN0mUjd5EDYBktRnF5CK/1B0kD6zARifTcB3gIOB44OzSJK29T1S8fcOrh2wARi/jcC3h//79MAckqQt/S/gz/HKf0xsACbuUmANcBY+UEmSon0IeDvpIk1jYOEa3HOArwKzo4NIUoUeBl4LfC06SG5sAJpxGGnH6VHRQSSpIncC5wDXRQfJkY8CbsYi4DTSrYKSpPb9FDgFi/+E2QA0ZynpkcF/QZqSkiQ1bx3wVuAM4N7gLFlzCaAdTwQ+i7cKSlKTbgXOI139a0DOALTjV6THBv8lsDo4iyTlbgj4O+BoLP6N8TbA9mwiNQLfIj098PDQNJKUp0uBlwL/ibf4NcoZgPYtBM4mPS/g+uAskpSLW0g7/M8Arg3OUiQbgO5cQnqHwFm4a1WSRrKI9Cjfo0i3V6slbgKMMRV4NfA3wKGxUSSpF+4C/hX4FLA2OEsVbADinQr8LfB8/Dwk1ecS4BPAd3GNv1MWnP44jnR7yyuBPYOzSFKbVgH/B/gMcHVwlmrZAPTPdOCFpF2vfwLsEhtHkhrxCHAxaTf/N/EW6XA2AP22C/Bc0l0EzwbmxcaRpHF5gFT0vwNcBKyMjaPHsgHIy7GkRuDpwNOAubFxJGkLy4FfAD8jFf7rcF2/t2wA8nYkcDLpqYMLgBOA3UITSarFw8ANpHv0rwWuAH6LBT8bNgBl2Yn01MGDgUOG/x5EWjrYd/ivewokjcVa4D7g/uFxJ7AYuG3472JgQ1g6DcwGoD67kZqAmcDs4b87hyaSFG0IWAM8RLqyX4Pr9ZIkSZIkSZIkSZIkSZIkSZIkSZIkSZIkSZIkSZIkSZIkSZIkSZIkSZIkSZIkSZIkSZIkSZIkSZIkSZIkSZIkSZIkSZIkSZIkSZIkSZIkSZIkSZIkSZIkSZIkaYf+H/qOSLwLjzSzAAAAAElFTkSuQmCC;" vertex="1" parent="1">
          <mxGeometry x="349" y="640" width="70" height="70" as="geometry" />
        </mxCell>
        <mxCell id="07Std1C0W4EiO_UUoKn6-9" value="Petición de información" style="edgeStyle=orthogonalEdgeStyle;rounded=0;orthogonalLoop=1;jettySize=auto;html=1;curved=1;fontStyle=1" edge="1" parent="1" source="07Std1C0W4EiO_UUoKn6-6" target="07Std1C0W4EiO_UUoKn6-8">
          <mxGeometry x="0.0042" y="-20" relative="1" as="geometry">
            <mxPoint as="offset" />
          </mxGeometry>
        </mxCell>
        <mxCell id="07Std1C0W4EiO_UUoKn6-15" value="Envió de información" style="edgeStyle=orthogonalEdgeStyle;rounded=0;orthogonalLoop=1;jettySize=auto;html=1;curved=1;fontStyle=1" edge="1" parent="1" source="07Std1C0W4EiO_UUoKn6-6" target="07Std1C0W4EiO_UUoKn6-7">
          <mxGeometry relative="1" as="geometry" />
        </mxCell>
        <mxCell id="07Std1C0W4EiO_UUoKn6-6" value="Controlador" style="rounded=1;whiteSpace=wrap;html=1;fontStyle=1" vertex="1" parent="1">
          <mxGeometry x="324" y="440" width="120" height="40" as="geometry" />
        </mxCell>
        <mxCell id="07Std1C0W4EiO_UUoKn6-16" value="Respuesta" style="edgeStyle=orthogonalEdgeStyle;rounded=0;orthogonalLoop=1;jettySize=auto;html=1;curved=1;fontStyle=1" edge="1" parent="1" source="07Std1C0W4EiO_UUoKn6-7" target="07Std1C0W4EiO_UUoKn6-4">
          <mxGeometry x="0.1681" y="20" relative="1" as="geometry">
            <Array as="points">
              <mxPoint x="220" y="670" />
            </Array>
            <mxPoint as="offset" />
          </mxGeometry>
        </mxCell>
        <mxCell id="07Std1C0W4EiO_UUoKn6-7" value="Vista" style="rounded=1;whiteSpace=wrap;html=1;fontStyle=1" vertex="1" parent="1">
          <mxGeometry x="160" y="545" width="120" height="40" as="geometry" />
        </mxCell>
        <mxCell id="07Std1C0W4EiO_UUoKn6-10" value="Respuesta de información" style="edgeStyle=orthogonalEdgeStyle;rounded=0;orthogonalLoop=1;jettySize=auto;html=1;curved=1;exitX=0;exitY=0.5;exitDx=0;exitDy=0;entryX=0.75;entryY=1;entryDx=0;entryDy=0;fontStyle=1" edge="1" parent="1" source="07Std1C0W4EiO_UUoKn6-8" target="07Std1C0W4EiO_UUoKn6-6">
          <mxGeometry x="-0.3036" y="-45" relative="1" as="geometry">
            <mxPoint as="offset" />
          </mxGeometry>
        </mxCell>
        <mxCell id="07Std1C0W4EiO_UUoKn6-8" value="Modelo" style="rounded=1;whiteSpace=wrap;html=1;fontStyle=1" vertex="1" parent="1">
          <mxGeometry x="530" y="545" width="120" height="40" as="geometry" />
        </mxCell>
        <mxCell id="07Std1C0W4EiO_UUoKn6-19" value="&lt;div style=&quot;text-align: justify;&quot;&gt;&lt;br&gt;&lt;/div&gt;&lt;span id=&quot;docs-internal-guid-f17c2e94-7fff-28e0-a4e8-f65631eed689&quot; style=&quot;&quot;&gt;&lt;p style=&quot;font-weight: normal; text-align: justify; line-height: 1.38; margin-top: 0pt; margin-bottom: 0pt;&quot; dir=&quot;ltr&quot;&gt;&lt;span style=&quot;font-size: 11pt; font-family: Arial, sans-serif; color: rgb(0, 0, 0); background-color: transparent; font-weight: 400; font-style: normal; font-variant: normal; text-decoration: none; vertical-align: baseline;&quot;&gt;Proponemos usar el modelo MVC (Modelo -Vista - Controlador) el cual consiste en dividir el sistema en tres partes:&lt;/span&gt;&lt;/p&gt;&lt;p style=&quot;font-weight: normal; text-align: justify; line-height: 1.38; margin-top: 0pt; margin-bottom: 0pt;&quot; dir=&quot;ltr&quot;&gt;&lt;/p&gt;&lt;ul style=&quot;&quot;&gt;&lt;li style=&quot;font-weight: bold; text-align: left;&quot;&gt;&lt;span style=&quot;font-size: 11pt; font-family: Arial, sans-serif; color: rgb(0, 0, 0); background-color: transparent; font-style: normal; font-variant: normal; text-decoration: none; vertical-align: baseline;&quot;&gt;Modelo&lt;/span&gt;&lt;span style=&quot;font-weight: 400; font-size: 11pt; font-family: Arial, sans-serif; color: rgb(0, 0, 0); background-color: transparent; font-style: normal; font-variant: normal; text-decoration: none; vertical-align: baseline;&quot;&gt;: Representa las entidades del sistema, como las Bases de Datos donde se almacena la información.&lt;/span&gt;&lt;/li&gt;&lt;li style=&quot;font-weight: bold; text-align: left;&quot;&gt;&lt;span style=&quot;background-color: transparent; font-family: Arial, sans-serif; font-size: 11pt;&quot;&gt;Vista&lt;span style=&quot;font-weight: normal;&quot;&gt;: Es la parte visible del sistema, consiste en las pantallas e interfaces con las que interactua el usuario.&lt;/span&gt;&lt;/span&gt;&lt;/li&gt;&lt;li style=&quot;text-align: left;&quot;&gt;&lt;span style=&quot;background-color: transparent; font-family: Arial, sans-serif; font-size: 11pt;&quot;&gt;&lt;b&gt;Controlador&lt;/b&gt;&lt;span style=&quot;font-weight: normal;&quot;&gt;: &lt;/span&gt;Esta &lt;span style=&quot;font-weight: normal;&quot;&gt;parte consiste en todas las operaciones y funcionalidades del sistema, es quien toma los datos del Modelo y lo transmite a las vistas.&lt;/span&gt;&lt;/span&gt;&lt;/li&gt;&lt;/ul&gt;&lt;p style=&quot;font-weight: normal;&quot;&gt;&lt;/p&gt;&lt;p style=&quot;font-weight: normal; text-align: justify; line-height: 1.38; margin-top: 0pt; margin-bottom: 0pt;&quot; dir=&quot;ltr&quot;&gt;&lt;span style=&quot;font-size: 11pt; font-family: Arial, sans-serif; color: rgb(0, 0, 0); background-color: transparent; font-weight: 400; font-style: normal; font-variant: normal; text-decoration: none; vertical-align: baseline;&quot;&gt;Elegimos esta arquitectura debido a su facilidad de implementación, su confianza y la adaptabilidad que presenta para futuros cambios. &lt;/span&gt;&lt;/p&gt;&lt;/span&gt;" style="rounded=1;whiteSpace=wrap;html=1;verticalAlign=middle;horizontal=1;spacingLeft=25;spacingRight=25;" vertex="1" parent="1">
          <mxGeometry x="-51" y="720" width="870" height="270" as="geometry" />
        </mxCell>
      </root>
    </mxGraphModel>
  </diagram>
</mxfile>
